<?xml version="1.0" encoding="UTF-8" standalone="no"?>
<svg
   version="1.2"
   viewBox="0 0 148.89999 170.60201"
   width="148.89999"
   height="170.60201"
   id="svg457"
   sodipodi:docname="eb61112adfaf1e7604451f21fbdfba47.svg"
   xmlns:inkscape="http://www.inkscape.org/namespaces/inkscape"
   xmlns:sodipodi="http://sodipodi.sourceforge.net/DTD/sodipodi-0.dtd"
   xmlns="http://www.w3.org/2000/svg"
   xmlns:svg="http://www.w3.org/2000/svg">
  <sodipodi:namedview
     id="namedview459"
     pagecolor="#ffffff"
     bordercolor="#666666"
     borderopacity="1.0"
     inkscape:pageshadow="2"
     inkscape:pageopacity="0.0"
     inkscape:pagecheckerboard="0" />
  <title
     id="title2">triyog-new-logo-_1_-svg</title>
  <defs
     id="defs16">
    <clipPath
       clipPathUnits="userSpaceOnUse"
       id="cp1">
      <path
         d="m 71.79,70.58 c 0,0 4.29,0.78 3.77,8.06 0,0 0.69,2.2 1.56,-4.16 0.13,-0.94 1.3,-3.12 2.47,-2.86 0,0 -0.52,1.95 0.13,2.73 0,0 1.98,2.52 2.5,4.19 q 0.16,0.51 0.1,0.88 c -0.26,1.43 5.33,4.68 5.33,4.68 0,0 1.04,6.24 0.78,6.63 -0.26,0.39 -6.24,10.93 -6.24,10.93 l -14.56,-1.17 c 0,0 -7.02,-3.64 -3.51,-11.71 0,0 -0.06,0.22 0.39,-0.65 l 5.06,-8.09 -0.32,-0.89 q 0.05,-0.1 0.11,-0.2 c 1.09,-1.89 2.05,-3.13 2.3,-3.3 1.04,-0.73 1.17,-3.25 0.13,-5.07 z"
         id="path4" />
    </clipPath>
    <clipPath
       clipPathUnits="userSpaceOnUse"
       id="cp2">
      <path
         d="M -31,-24 H 177.93 V 191.81 H -31 Z"
         id="path7" />
    </clipPath>
    <clipPath
       clipPathUnits="userSpaceOnUse"
       id="cp3">
      <path
         d="m 68.19,77.63 c 0.88,0 1.76,0.62 1.88,2.99 q 0.03,0.42 0.02,0.91 c 0,0 -1.95,4.68 0.52,5.72 0,0 1.04,1.17 1.04,-2.73 0,0 -0.65,-3.12 0.65,-3.12 0,0 1,1.82 1.25,3.26 q 0.08,0.42 0.05,0.77 l -6.37,6.24 c 0,0 -0.14,-0.11 -0.36,-0.32 -0.96,-0.92 -3.42,-3.68 -1.72,-6.44 0,0 4.55,-5.33 1.04,-6.5 0,0 1,-0.78 2,-0.78 z"
         id="path10" />
    </clipPath>
    <clipPath
       clipPathUnits="userSpaceOnUse"
       id="cp4">
      <path
         d="M -31,-24 H 177.93 V 191.81 H -31 Z"
         id="path13" />
    </clipPath>
  </defs>
  <style
     id="style18">
		.s0 { fill: #ffffff } 
		.s1 { fill: #fffeff } 
		.s2 { fill: #fffdfe } 
		.s3 { fill: #fffcfe } 
		.s4 { fill: #fffbfd } 
		.s5 { fill: #fffafd } 
		.s6 { fill: #fff9fc } 
		.s7 { fill: #fef8fc } 
		.s8 { fill: #fef7fb } 
		.s9 { fill: #fef6fb } 
		.s10 { fill: #fef5fa } 
		.s11 { fill: #fef4fa } 
		.s12 { fill: #fef3f9 } 
		.s13 { fill: #fef2f9 } 
		.s14 { fill: #fef1f9 } 
		.s15 { fill: #fef0f8 } 
		.s16 { fill: #feeff8 } 
		.s17 { fill: #feeef7 } 
		.s18 { fill: #feedf7 } 
		.s19 { fill: #feecf6 } 
		.s20 { fill: #fdebf6 } 
		.s21 { fill: #fdeaf5 } 
		.s22 { fill: #fde9f5 } 
		.s23 { fill: #fde8f4 } 
		.s24 { fill: #fde7f4 } 
		.s25 { fill: #fde6f4 } 
		.s26 { fill: #fde4f3 } 
		.s27 { fill: #fde3f3 } 
		.s28 { fill: #fde2f2 } 
		.s29 { fill: #fde1f2 } 
		.s30 { fill: #fde0f1 } 
		.s31 { fill: #fddff1 } 
		.s32 { fill: #fddef0 } 
		.s33 { fill: #fcddf0 } 
		.s34 { fill: #fcdcef } 
		.s35 { fill: #fcdbef } 
		.s36 { fill: #fcdaee } 
		.s37 { fill: #fcd9ee } 
		.s38 { fill: #fcd8ee } 
		.s39 { fill: #fcd7ed } 
		.s40 { fill: #fcd6ed } 
		.s41 { fill: #fcd5ec } 
		.s42 { fill: #fcd4ec } 
		.s43 { fill: #fcd3eb } 
		.s44 { fill: #fcd2eb } 
		.s45 { fill: #fcd1ea } 
		.s46 { fill: #ec008c } 
		.s47 { fill: #231f20 } 
		.s48 { fill: #f24dae } 
		.s49 { fill: #f799d1 } 
		.s50 { fill: #f89cd2 } 
		.s51 { fill: #f8a3d6 } 
		.s52 { fill: #181616 } 
	</style>
  <g
     id="g10"
     transform="translate(0.1,-0.29800128)">
    <g
       id="g12">
      <g
         id="Clip-Path: g14"
         clip-path="url(#cp1)">
        <g
           id="g14">
          <path
             id="path20"
             class="s0"
             d="m 60.6,97.5 h 28.1 v 4.2 H 60.6 Z" />
          <path
             id="path22"
             class="s0"
             d="m 60.6,97.1 h 28.1 v 0.4 H 60.6 Z" />
          <path
             id="path24"
             class="s1"
             d="m 60.6,96.6 h 28.1 v 0.5 H 60.6 Z" />
          <path
             id="path26"
             class="s2"
             d="m 60.6,96.2 h 28.1 v 0.4 H 60.6 Z" />
          <path
             id="path28"
             class="s3"
             d="m 60.6,95.7 h 28.1 v 0.5 H 60.6 Z" />
          <path
             id="path30"
             class="s4"
             d="m 60.6,95.3 h 28.1 v 0.4 H 60.6 Z" />
          <path
             id="path32"
             class="s5"
             d="m 60.6,94.8 h 28.1 v 0.5 H 60.6 Z" />
          <path
             id="path34"
             class="s6"
             d="m 60.6,94.4 h 28.1 v 0.4 H 60.6 Z" />
          <path
             id="path36"
             class="s7"
             d="m 60.6,94 h 28.1 v 0.4 H 60.6 Z" />
          <path
             id="path38"
             class="s8"
             d="M 60.6,93.5 H 88.7 V 94 H 60.6 Z" />
          <path
             id="path40"
             class="s9"
             d="m 60.6,93.1 h 28.1 v 0.4 H 60.6 Z" />
          <path
             id="path42"
             class="s10"
             d="m 60.6,92.6 h 28.1 v 0.5 H 60.6 Z" />
          <path
             id="path44"
             class="s11"
             d="m 60.6,92.2 h 28.1 v 0.4 H 60.6 Z" />
          <path
             id="path46"
             class="s12"
             d="m 60.6,91.7 h 28.1 v 0.5 H 60.6 Z" />
          <path
             id="path48"
             class="s13"
             d="m 60.6,91.3 h 28.1 v 0.4 H 60.6 Z" />
          <path
             id="path50"
             class="s14"
             d="m 60.6,90.9 h 28.1 v 0.4 H 60.6 Z" />
          <path
             id="path52"
             class="s15"
             d="m 60.6,90.4 h 28.1 v 0.5 H 60.6 Z" />
          <path
             id="path54"
             class="s16"
             d="m 60.6,90 h 28.1 v 0.4 H 60.6 Z" />
          <path
             id="path56"
             class="s17"
             d="M 60.6,89.5 H 88.7 V 90 H 60.6 Z" />
          <path
             id="path58"
             class="s18"
             d="m 60.6,89.1 h 28.1 v 0.4 H 60.6 Z" />
          <path
             id="path60"
             class="s19"
             d="m 60.6,88.6 h 28.1 v 0.5 H 60.6 Z" />
          <path
             id="path62"
             class="s20"
             d="m 60.6,88.2 h 28.1 v 0.4 H 60.6 Z" />
          <path
             id="path64"
             class="s21"
             d="m 60.6,87.8 h 28.1 v 0.4 H 60.6 Z" />
          <path
             id="path66"
             class="s22"
             d="m 60.6,87.3 h 28.1 v 0.5 H 60.6 Z" />
          <path
             id="path68"
             class="s23"
             d="m 60.6,86.9 h 28.1 v 0.4 H 60.6 Z" />
          <path
             id="path70"
             class="s24"
             d="m 60.6,86.4 h 28.1 v 0.5 H 60.6 Z" />
          <path
             id="path72"
             class="s25"
             d="m 60.6,86 h 28.1 v 0.4 H 60.6 Z" />
          <path
             id="path74"
             class="s26"
             d="M 60.6,85.5 H 88.7 V 86 H 60.6 Z" />
          <path
             id="path76"
             class="s27"
             d="m 60.6,85.1 h 28.1 v 0.4 H 60.6 Z" />
          <path
             id="path78"
             class="s28"
             d="m 60.6,84.7 h 28.1 v 0.4 H 60.6 Z" />
          <path
             id="path80"
             class="s29"
             d="m 60.6,84.2 h 28.1 v 0.5 H 60.6 Z" />
          <path
             id="path82"
             class="s30"
             d="m 60.6,83.8 h 28.1 v 0.4 H 60.6 Z" />
          <path
             id="path84"
             class="s31"
             d="m 60.6,83.3 h 28.1 v 0.5 H 60.6 Z" />
          <path
             id="path86"
             class="s32"
             d="m 60.6,82.9 h 28.1 v 0.4 H 60.6 Z" />
          <path
             id="path88"
             class="s33"
             d="m 60.6,82.4 h 28.1 v 0.5 H 60.6 Z" />
          <path
             id="path90"
             class="s34"
             d="m 60.6,82 h 28.1 v 0.4 H 60.6 Z" />
          <path
             id="path92"
             class="s35"
             d="M 60.6,81.6 H 88.7 V 82 H 60.6 Z" />
          <path
             id="path94"
             class="s36"
             d="m 60.6,81.1 h 28.1 v 0.5 H 60.6 Z" />
          <path
             id="path96"
             class="s37"
             d="m 60.6,80.7 h 28.1 v 0.4 H 60.6 Z" />
          <path
             id="path98"
             class="s38"
             d="m 60.6,80.2 h 28.1 v 0.5 H 60.6 Z" />
          <path
             id="path100"
             class="s39"
             d="m 60.6,79.8 h 28.1 v 0.4 H 60.6 Z" />
          <path
             id="path102"
             class="s40"
             d="m 60.6,79.3 h 28.1 v 0.5 H 60.6 Z" />
          <path
             id="path104"
             class="s41"
             d="m 60.6,78.9 h 28.1 v 0.4 H 60.6 Z" />
          <path
             id="path106"
             class="s42"
             d="m 60.6,78.5 h 28.1 v 0.4 H 60.6 Z" />
          <path
             id="path108"
             class="s43"
             d="m 60.6,78 h 28.1 v 0.5 H 60.6 Z" />
          <path
             id="path110"
             class="s44"
             d="M 60.6,77.6 H 88.7 V 78 H 60.6 Z" />
          <path
             id="path112"
             class="s45"
             d="m 60.6,77.1 h 28.1 v 0.5 H 60.6 Z" />
          <path
             id="path114"
             class="s45"
             d="M 88.7,77.1 H 60.6 v -6.5 h 28.1 z" />
        </g>
      </g>
    </g>
    <g
       id="g116">
      <g
         id="Clip-Path: g118"
         clip-path="url(#cp2)">
        <g
           id="g118">
          <g
             id="g124">
            <path
               id="path126"
               fill-rule="evenodd"
               class="s46"
               d="m 82.4,102.1 -15,-1.2 c 0,-0.1 -7.3,-4 -3.7,-12.3 l 0.3,0.1 -0.2,-0.2 c 0,0 0.1,-0.2 0.3,-0.6 l 5,-8 c 0,-0.3 0,-0.6 0,-0.6 L 68.8,79 69,78.7 q 0,0 0,0 l 0.2,-0.3 c 1,-1.7 1.9,-2.9 2.2,-3.1 0.8,-0.6 1,-2.9 0,-4.5 L 71,70 l 0.9,0.2 c 0.1,0 4.3,0.8 4.1,7.7 0.2,-0.5 0.4,-1.6 0.7,-3.5 0.1,-0.8 0.8,-2.3 1.7,-2.9 q 0.7,-0.4 1.3,-0.3 l 0.4,0.1 -0.1,0.4 c -0.2,0.7 -0.3,1.9 0,2.4 0.1,0.1 2.1,2.6 2.6,4.3 q 0.2,0.7 0.1,1.1 c -0.1,0.7 2.6,2.7 5.2,4.2 l 0.1,0.1 0.1,0.2 c 1,6.4 0.8,6.8 0.7,7 -0.2,0.3 -3.8,6.6 -6.2,10.9 z m -14.7,-2.1 14.2,1.2 c 1,-1.8 5.9,-10.4 6.1,-10.7 0.1,-0.4 -0.3,-3.4 -0.8,-6.2 -1.5,-0.9 -5.6,-3.5 -5.4,-5 0.1,-0.1 0.1,-0.3 -0.1,-0.7 -0.4,-1.5 -2.4,-4 -2.4,-4 -0.5,-0.7 -0.4,-1.8 -0.3,-2.5 q -0.1,0 -0.1,0.1 c -0.7,0.4 -1.3,1.7 -1.4,2.3 -0.6,4.4 -1.2,4.9 -1.6,4.9 q -0.1,0 -0.1,0 c -0.4,0 -0.6,-0.3 -0.7,-0.7 v -0.1 c 0.3,-4.7 -1.4,-6.6 -2.6,-7.2 0.6,1.8 0.4,3.8 -0.7,4.6 -0.1,0.1 -1,1.2 -2,2.9 0.1,0.3 0.1,0.7 0.1,1.4 h -0.1 l -5,8 q -0.2,0.5 -0.4,0.7 c -3,7.2 2.5,10.6 3.3,11 z" />
          </g>
          <g
             id="g128">
            <path
               id="path130"
               class="s47"
               d="M 21,44.1 13.8,24.8 14.3,24.4 C 43,-0.4 75.5,0.3 75.8,0.3 L 75.7,2 C 75.4,2 44,1.3 15.9,25.3 l 5.9,16 C 27,37.4 52.5,19.4 75.8,20.9 l -0.1,1.7 C 50.8,21 22.2,43.2 21.9,43.4 Z" />
          </g>
          <g
             id="g132">
            <path
               id="path134"
               class="s47"
               d="M 13.1,53.2 C 9.4,53.2 6.5,52.8 6.2,52.7 L 3.5,52.4 6,51.1 C 6.7,50.8 9.8,48.4 12.5,46.4 4.5,45.6 1.3,42.2 1.1,42 L -0.1,40.7 1.7,40.6 C 8.3,40.3 17.9,34.2 18,34.1 l 0.9,1.5 C 18.5,35.8 10.7,40.8 4,42 c 1.8,1.1 5.3,2.6 10.9,2.8 l 2.4,0.1 -1.9,1.5 c -0.6,0.4 -4.1,3.1 -6.6,4.9 4.5,0.3 14.1,0.5 17.3,-3.4 1.2,-1.6 1.4,-3.6 0.4,-6.2 l -1,-1.9 1.6,-0.7 1,1.9 q 1.8,4.9 -0.6,7.9 c -2.8,3.5 -9.3,4.3 -14.4,4.3 z" />
          </g>
          <g
             id="g136">
            <path
               id="path138"
               class="s47"
               d="m 21.4,42.7 c 0,0 -5.6,4.9 5.9,1.7 0,0 2.3,-6.6 -5.9,-1.7 z" />
          </g>
          <g
             id="g140">
            <path
               id="path142"
               fill-rule="evenodd"
               class="s47"
               d="m 21.5,46.4 q -1.8,-0.1 -2.2,-1.1 c -0.5,-1.3 0.9,-2.7 1.5,-3.2 2.3,-1.4 4,-2.1 5.2,-2.1 1.1,0 1.7,0.5 2,1 0.9,1.3 0.2,3.4 0.1,3.7 l -0.1,0.4 -0.5,0.1 c -2.7,0.8 -4.7,1.2 -6,1.2 z M 21,44.6 q 0.1,0 0.5,0 1.6,0 5.1,-0.9 c 0.2,-0.6 0.2,-1.4 0,-1.7 -0.1,-0.2 -0.8,-0.9 -4.8,1.5 -0.3,0.3 -0.7,0.8 -0.8,1.1 z" />
          </g>
          <g
             id="g144">
            <path
               id="path146"
               class="s48"
               d="m 27.7,39.5 1,1.9 C 33.9,55.5 7.8,51.9 7.8,51.9 9.1,51.2 16.3,45.7 16.3,45.7 6.8,45.4 3.2,41.4 3.2,41.4 10,41.1 19.9,34.9 19.9,34.9" />
          </g>
          <g
             id="g148">
            <path
               id="path150"
               class="s47"
               d="m 14.5,53.2 c -3.7,0 -6.6,-0.4 -6.9,-0.5 L 4.9,52.4 7.4,51.1 C 8.1,50.8 11.2,48.4 13.9,46.4 5.9,45.6 2.7,42.2 2.5,42 L 1.3,40.7 3.1,40.6 c 6.6,-0.3 16.2,-6.4 16.3,-6.5 l 0.9,1.5 C 20,35.8 12.1,40.8 5.4,42 c 1.8,1.1 5.3,2.6 10.9,2.8 l 2.4,0.1 -1.9,1.5 c -0.5,0.4 -4.1,3.1 -6.6,4.9 4.5,0.3 14.1,0.5 17.3,-3.4 1.2,-1.6 1.4,-3.6 0.4,-6.2 l -0.9,-1.9 1.5,-0.7 1,1.9 q 1.8,4.9 -0.6,7.9 c -2.8,3.5 -9.3,4.3 -14.4,4.3 z" />
          </g>
          <g
             id="g152">
            <path
               id="path154"
               class="s49"
               d="M 75.8,21.8 C 50.2,20.1 21.4,42.7 21.4,42.7 L 14.9,25.1 C 43.7,0.2 75.8,1.2 75.8,1.2" />
          </g>
          <g
             id="g156">
            <path
               id="path158"
               class="s47"
               d="M 21,44.1 13.8,24.8 14.3,24.4 C 43,-0.4 75.5,0.3 75.8,0.3 L 75.7,2 C 75.4,2 44,1.3 15.9,25.3 l 5.9,16 C 27,37.4 52.5,19.4 75.8,20.9 l -0.1,1.7 C 50.8,21 22.2,43.2 21.9,43.4 Z" />
          </g>
          <g
             id="g160">
            <path
               id="path162"
               class="s47"
               d="m 22.8,42.2 c 0,0 -5.6,5.9 5.9,1.9 0,0 2.3,-7.9 -5.9,-1.9 z" />
          </g>
          <g
             id="g164">
            <path
               id="path166"
               fill-rule="evenodd"
               class="s47"
               d="m 23,46.4 h -0.1 q -1.7,-0.1 -2.2,-1.1 c -0.6,-1.4 1,-3.2 1.5,-3.7 2.3,-1.7 4,-2.5 5.2,-2.5 1,0 1.6,0.5 1.9,0.9 1,1.4 0.4,3.9 0.2,4.4 l -0.1,0.4 -0.4,0.1 c -2.8,1 -4.7,1.5 -6,1.5 z m -0.7,-1.8 c 0.1,0 0.3,0 0.6,0 H 23 c 0.7,0 2.1,-0.2 5,-1.1 0.2,-0.9 0.2,-2 -0.1,-2.5 0,-0.1 -0.1,-0.2 -0.5,-0.2 -0.5,0 -1.6,0.3 -4.1,2.1 -0.5,0.5 -1,1.4 -1,1.7 q 0,0 0,0 z" />
          </g>
          <g
             id="g168">
            <path
               id="path170"
               class="s48"
               d="m 131.2,34.9 c 0,0 8.9,5.9 15.7,6.2 0,0 -3.6,3.9 -13,4.3 0,0 7.2,5.5 8.5,6.2 0,0 -26.2,3.6 -21,-10.5 l 0.9,-2.5" />
          </g>
          <g
             id="g172">
            <path
               id="path174"
               class="s47"
               d="m 135.6,52.8 c -5,0 -11.5,-0.7 -14.3,-4.2 -1.7,-2 -1.9,-4.6 -0.7,-7.8 l 0.9,-2.5 1.6,0.6 -0.9,2.5 c -1,2.6 -0.8,4.6 0.4,6.1 3.2,4 12.8,3.8 17.3,3.5 -2.5,-1.8 -6,-4.6 -6.6,-5 l -1.9,-1.4 2.4,-0.1 c 5.6,-0.2 9.1,-1.7 10.9,-2.8 -6.5,-1.2 -13.6,-5.8 -14,-6 l 1,-1.5 c 0,0.1 8.7,5.7 15.3,6 l 1.8,0.1 -1.2,1.4 c -0.2,0.1 -3.4,3.5 -11.4,4.4 2.7,2 5.8,4.3 6.5,4.7 l 2.5,1.2 -2.7,0.4 c -0.3,0.1 -3.2,0.4 -6.9,0.4 z" />
          </g>
          <g
             id="g176">
            <path
               id="path178"
               class="s49"
               d="m 75.2,1.2 c 0,0 32.1,-1 60.9,23.9 l -6.6,17.6 c 0,0 -28.8,-22.6 -54.3,-20.9" />
          </g>
          <g
             id="g180">
            <path
               id="path182"
               class="s47"
               d="M 129.9,44.1 129,43.4 C 128.7,43.2 100.1,21 75.2,22.6 l -0.1,-1.7 c 23.3,-1.5 48.8,16.5 54,20.4 l 6,-16 C 107,1.3 75.5,2 75.2,2 L 75.1,0.3 c 0.4,0 32.8,-0.7 61.5,24.1 l 0.5,0.4 z" />
          </g>
          <g
             id="g184">
            <path
               id="path186"
               class="s47"
               d="m 129,41.8 c 0,0 3.5,5.4 -8,2.1 0,0 -0.2,-7 8,-2.1 z" />
          </g>
          <g
             id="g188">
            <path
               id="path190"
               fill-rule="evenodd"
               class="s47"
               d="m 126.8,45.8 q -2.2,0 -6,-1.1 l -0.6,-0.1 -0.1,-0.7 c 0,0 0,-2.2 1.3,-3.6 1.7,-1.6 4.4,-1.4 8.1,0.8 l 0.2,0.3 c 0.2,0.1 1.1,1.7 0.4,3.1 q -0.8,1.3 -3.3,1.3 z m -4.9,-2.5 c 3.7,1 6.3,1 6.7,0.3 0.1,-0.2 0,-0.8 -0.2,-1.1 -2.7,-1.7 -4.7,-2 -5.7,-1 -0.5,0.5 -0.7,1.3 -0.8,1.8 z" />
          </g>
          <g
             id="g192">
            <path
               id="path194"
               class="s49"
               d="M 122.8,112.9 92.4,113 H 85.6 67.4 l -3.3,-5 24.6,-0.1 h 6.8 l 18.2,-0.1 -9.2,-14.6 3,-4.9 z" />
          </g>
          <g
             id="g196">
            <path
               id="path198"
               fill-rule="evenodd"
               class="s47"
               d="m 66.9,113.9 -4.3,-6.8 49.5,-0.1 -8.6,-13.7 4,-6.6 16.9,27.1 z m -1.2,-5.1 2.1,3.3 53.5,-0.1 -13.8,-22 -2,3.2 9.7,15.5 z" />
          </g>
          <g
             id="g200">
            <path
               id="path202"
               class="s49"
               d="m 57.5,108 3.1,5 -31.2,0.1 15.5,-25.3 3.1,-5.1 9.2,-14.9 h 6.5 L 51.3,87.9 48.2,93 39,108 Z" />
          </g>
          <g
             id="g204">
            <path
               id="path206"
               fill-rule="evenodd"
               class="s47"
               d="M 27.9,114 56.7,67 h 8.5 l -24.7,40.2 17.5,-0.1 4.2,6.8 z M 57.7,68.7 31,112.3 l 28.1,-0.1 -2,-3.3 H 37.4 L 62.2,68.7 Z" />
          </g>
          <g
             id="g208">
            <path
               id="path210"
               class="s49"
               d="M 104.2,82.9 101.1,87.8 88.6,67.8 85.7,63.2 76,47.8 66.5,63.2 H 60 l 15.8,-25.8 16.1,25.8 2.9,4.6 z" />
          </g>
          <g
             id="g212">
            <path
               id="path214"
               fill-rule="evenodd"
               class="s47"
               d="M 101.1,89.5 76,49.4 67,64 H 58.5 L 75.8,35.8 105.2,82.9 Z M 75.9,46.2 101.1,86.3 103.1,83 75.8,39.1 61.5,62.4 H 66 Z" />
          </g>
          <g
             id="g216">
            <path
               id="path218"
               class="s49"
               d="M 88.6,67.8 H 63.7 57.2 38.6 L 48,82.7 44.9,87.8 29.6,63.2 H 60 66.5 85.7 Z" />
          </g>
          <g
             id="g220">
            <path
               id="path222"
               fill-rule="evenodd"
               class="s47"
               d="M 44.9,89.4 28,62.3 h 58.1 l 4.1,6.4 H 40.1 l 8.9,14 z M 31.2,64 44.9,86.1 47,82.7 37,67 h 50.1 l -1.9,-3 z" />
          </g>
          <g
             id="g224">
            <path
               id="path226"
               class="s49"
               d="m 92.4,113 -15.8,25.6 -16,-25.6 -3.1,-5 -9.3,-15 3.1,-5.1 12.8,20.1 3.3,5 9.2,14.5 9,-14.5 z" />
          </g>
          <g
             id="g228">
            <path
               id="path230"
               fill-rule="evenodd"
               class="s47"
               d="M 76.6,140.3 47.2,93 l 4.1,-6.7 25.3,39.6 8.5,-13.8 h 8.8 z M 49.2,93 76.6,137 90.9,113.9 H 86.1 L 76.6,129.2 51.4,89.5 Z" />
          </g>
          <g
             id="g232">
            <path
               id="path234"
               class="s49"
               d="m 123,63.2 -15.5,25.1 -3,4.9 -9,14.7 h -6.8 l 12.4,-20.1 3.1,-4.9 9.3,-15.1 H 94.8 l -2.9,-4.6 z" />
          </g>
          <g
             id="g236">
            <path
               id="path238"
               fill-rule="evenodd"
               class="s47"
               d="M 87.2,108.8 111.9,68.7 H 94.3 l -4,-6.4 h 34.3 L 96,108.7 Z M 95.3,67.1 H 115 l -24.7,40 h 4.8 l 26.4,-43 H 93.4 Z" />
          </g>
          <g
             id="g240">
            <path
               id="path242"
               class="s47"
               d="M 99.4,59.4 C 98.1,58.7 98.1,55.7 98.2,54 98.6,50.5 97.8,49.9 97.7,49.9 l -0.6,-0.1 0.1,-0.7 c 0,-0.6 -2.1,-2.7 -4.7,-4.7 l -0.2,0.2 -0.2,-0.2 C 91.7,43.8 89.8,42 88.7,41 l -0.3,-0.3 v -0.4 c 0,-0.7 -0.9,-1.8 -1.7,-2.6 -0.7,0 -1.9,-0.6 -4.1,-2.8 l -0.2,-0.2 v -0.3 c -0.1,-1.8 -0.5,-2.1 -0.5,-2.1 0,0 -0.4,0.1 -0.6,0.2 -0.6,0.3 -2.1,1.1 -2.9,-0.5 q -0.2,-0.4 -0.5,-0.8 c -0.8,-1.3 -1.8,-2.3 -2.2,-2.7 -1,0.2 -2.5,2.2 -3.4,4.2 l -0.2,0.5 h -0.6 c -0.4,0.2 -2.2,2.5 -3.6,4.5 l -0.1,0.2 -6.2,4.7 -2.7,-0.6 -0.1,-0.5 c -0.3,-1.3 -0.9,-2 -1.3,-2.4 -0.6,0.4 -1.8,1.5 -2.6,2.2 -2.2,1.9 -2.8,2.4 -3.5,2.4 -0.3,0.1 -1.6,0.9 -2.8,1.8 l -3.7,2.7 c -1.5,0.3 -3.2,0.7 -3.5,1 -0.3,0.7 -3.6,5.1 -4.3,5.9 l -1.4,-1 c 1.6,-2.1 4,-5.3 4.2,-5.8 q 0.6,-1.1 4.6,-1.7 l 3.1,-2.4 c 1.3,-1 3,-2.2 3.8,-2.2 0.2,-0.1 1.5,-1.2 2.4,-2 2.7,-2.4 3.5,-3.1 4.4,-2.5 0.1,0.1 1.4,0.9 2.1,3.1 l 0.9,0.2 1.6,-1.3 3.8,-2.9 c 2.4,-3.4 3.6,-4.6 4.3,-4.9 0.7,-1.4 2.9,-5.3 5.3,-4.9 l 0.2,0.1 0.2,0.1 c 0,0.1 1.5,1.4 2.7,3.2 q 0.3,0.5 0.6,1 c 0.1,0.1 0.5,-0.1 0.7,-0.2 0.6,-0.3 1.4,-0.7 2.2,-0.2 0.7,0.4 1.1,1.3 1.3,3.1 1,1 2.1,1.9 2.6,2.1 l 0.4,-0.2 0.4,0.4 c 0.2,0.2 2.3,2 2.6,3.7 0.5,0.5 1.4,1.4 2.3,2.2 l 0.3,0.3 c 1.7,1.2 5.5,4.2 6.1,6.2 0.7,0.5 1.6,1.9 1.1,5.5 -0.1,1.7 0.1,3.5 0.4,3.9 z" />
          </g>
          <g
             id="g244">
            <path
               id="path246"
               class="s47"
               d="M 84.9,47.4 C 83,44.9 81.3,37.3 81.2,37 l 1.3,-0.3 c 0,0.1 1.7,7.7 3.4,9.9 z" />
          </g>
          <g
             id="g248">
            <path
               id="path250"
               class="s47"
               d="M 105.7,57.7 C 103.2,56.1 99,49.5 98.8,49.2 l 1.1,-0.7 c 0,0.1 4.2,6.6 6.5,8.2 z" />
          </g>
          <g
             id="g252">
            <path
               id="path254"
               class="s47"
               d="m 88.9,54.4 c -1.2,-0.3 -1.2,-2 -1.2,-2.2 h 1.2 c 0,0.5 0.2,0.9 0.3,1 z" />
          </g>
          <g
             id="g256">
            <path
               id="path258"
               class="s47"
               d="m 86.6,50.7 -1.3,-1.8 1,-0.8 1.3,1.8 z" />
          </g>
          <g
             id="g260">
            <path
               id="path262"
               class="s47"
               d="m 91,56.9 c -0.1,0 -1.1,-0.4 -1.7,-0.8 L 90,55 c 0.5,0.4 1.5,0.7 1.5,0.7 z" />
          </g>
          <g
             id="g264">
            <path
               id="path266"
               class="s47"
               d="m 51.1,61.1 -0.9,-0.9 c 3.1,-3.4 6.4,-7.3 6.6,-8 h 1.3 c 0,0.9 -2.3,3.8 -7,8.9 z" />
          </g>
          <g
             id="g268">
            <path
               id="path270"
               class="s47"
               d="m 59.7,52 -0.6,-1.1 1.2,-0.6 0.6,1.2 z" />
          </g>
          <g
             id="g272">
            <path
               id="path274"
               class="s47"
               d="M 62.3,49.6 61.2,49 62,47.6 l 1.1,0.7 z" />
          </g>
          <g
             id="g276">
            <path
               id="path278"
               class="s47"
               d="m 69.6,44.9 -1.2,-0.6 c 2.1,-3.9 3.1,-5.1 3.6,-5.4 0.4,-0.9 2,-4.6 2,-9.5 h 1.3 c 0,6 -2.1,10.1 -2.2,10.3 L 72.9,40 h -0.3 c -0.5,0.4 -2,2.8 -3,4.9 z" />
          </g>
          <g
             id="g280">
            <path
               id="path282"
               class="s47"
               d="m 48.6,47.6 -0.9,-0.9 c 2.6,-2.4 3.4,-2.8 3.8,-2.9 0.2,-0.2 0.5,-1.1 0.7,-1.9 l 1.2,0.4 c -0.7,2.8 -1.5,2.8 -1.8,2.8 -0.3,0.1 -1.8,1.4 -3,2.5 z" />
          </g>
          <g
             id="g284">
            <path
               id="path286"
               class="s47"
               d="m 51.8,48.1 -1.1,-0.7 c 0.2,-0.3 4.8,-7.3 6.4,-8.7 l 0.8,1 c -1.2,1 -4.8,6.4 -6.1,8.4 z" />
          </g>
          <g
             id="g288">
            <path
               id="path290"
               class="s47"
               d="m 55.5,46.3 -1.1,-0.6 c 0.8,-1.8 3.3,-4.9 6.6,-3.6 l -0.4,1.2 c -3.1,-1.2 -5.1,2.9 -5.1,3 z" />
          </g>
          <g
             id="g292">
            <path
               id="path294"
               class="s47"
               d="m 56.2,48.3 -0.5,-1.1 c 0.5,-0.3 3,-1.4 4.4,-1.6 q 2.8,-3.4 3.8,-3.4 h 0.7 v 0.7 c 0,3 -0.8,3.2 -1.1,3.3 L 63.1,45 Q 63,45.1 63,45.1 c 0.1,-0.1 0.2,-0.5 0.2,-1 -0.6,0.6 -1.5,1.6 -2.3,2.5 l -0.2,0.2 h -0.3 c -0.7,0 -3,1 -4.2,1.5 z" />
          </g>
          <g
             id="g296">
            <path
               id="path298"
               class="s47"
               d="m 67.2,42.6 -1.1,-0.6 1.2,-2 1.1,0.7 z" />
          </g>
          <g
             id="g300">
            <path
               id="path302"
               class="s47"
               d="m 69.2,38.9 -0.4,-0.7 1.1,-0.7 0.5,0.7 z" />
          </g>
          <g
             id="g304">
            <path
               id="path306"
               class="s47"
               d="m 99.2,48.6 c 1.8,-1.3 6.7,2.3 7.8,2.3 1.2,0 3,2.3 3,2.3" />
          </g>
          <g
             id="g308">
            <path
               id="path310"
               class="s47"
               d="m 109.4,53.6 c -0.7,-1 -1.9,-2.1 -2.4,-2.1 -0.5,0 -1.2,-0.3 -2.5,-1 -1.5,-0.7 -4,-2 -4.9,-1.4 l -0.8,-1 c 1.5,-1.1 4.2,0.2 6.3,1.3 0.7,0.3 1.7,0.8 1.9,0.8 1.4,0 3.1,2.2 3.5,2.6 z" />
          </g>
        </g>
      </g>
    </g>
    <g
       id="g312">
      <g
         id="Clip-Path: g314"
         clip-path="url(#cp3)">
        <g
           id="g314">
          <g
             id="g320">
            <path
               id="path322"
               class="s7"
               d="M 63.4,91.6 64,91.7 H 63.4 Z" />
          </g>
          <g
             id="g324">
            <path
               id="path326"
               class="s8"
               d="m 63.4,91.3 3.2,0.4 H 64 l -0.6,-0.1 z" />
          </g>
          <g
             id="g328">
            <path
               id="path330"
               class="s9"
               d="m 63.4,91 5.8,0.7 h -2.6 l -3.2,-0.4 z" />
          </g>
          <g
             id="g332">
            <path
               id="path334"
               class="s10"
               d="m 63.4,90.7 8.5,1 H 69.2 L 63.4,91 Z" />
          </g>
          <g
             id="g336">
            <path
               id="path338"
               class="s11"
               d="m 63.4,90.4 10.2,1.2 v 0.1 h -1.7 l -8.5,-1 z" />
          </g>
          <g
             id="g340">
            <path
               id="path342"
               class="s12"
               d="m 63.4,90.2 10.2,1.1 v 0.3 L 63.4,90.4 Z" />
          </g>
          <g
             id="g344">
            <path
               id="path346"
               class="s13"
               d="M 63.4,89.9 73.6,91 v 0.3 L 63.4,90.2 Z" />
          </g>
          <g
             id="g348">
            <path
               id="path350"
               class="s14"
               d="m 63.4,89.6 10.2,1.1 V 91 L 63.4,89.9 Z" />
          </g>
          <g
             id="g352">
            <path
               id="path354"
               class="s15"
               d="m 63.4,89.3 10.2,1.1 v 0.3 L 63.4,89.6 Z" />
          </g>
          <g
             id="g356">
            <path
               id="path358"
               class="s16"
               d="m 63.4,89 10.2,1.1 v 0.3 L 63.4,89.3 Z" />
          </g>
          <g
             id="g360">
            <path
               id="path362"
               class="s17"
               d="m 63.4,88.7 10.2,1.1 v 0.3 L 63.4,89 Z" />
          </g>
          <g
             id="g364">
            <path
               id="path366"
               class="s18"
               d="m 63.4,88.4 10.2,1.1 v 0.3 L 63.4,88.7 Z" />
          </g>
          <g
             id="g368">
            <path
               id="path370"
               class="s19"
               d="m 63.4,88.1 10.2,1.1 v 0.3 L 63.4,88.4 Z" />
          </g>
          <g
             id="g372">
            <path
               id="path374"
               class="s20"
               d="m 63.4,87.8 10.2,1.1 v 0.3 L 63.4,88.1 Z" />
          </g>
          <g
             id="g376">
            <path
               id="path378"
               class="s21"
               d="m 63.4,87.5 10.2,1.1 v 0.3 L 63.4,87.8 Z" />
          </g>
          <g
             id="g380">
            <path
               id="path382"
               class="s22"
               d="m 63.4,87.2 10.2,1.1 v 0.3 L 63.4,87.5 Z" />
          </g>
          <g
             id="g384">
            <path
               id="path386"
               class="s23"
               d="m 63.4,86.9 10.2,1.2 v 0.2 L 63.4,87.2 Z" />
          </g>
          <g
             id="g388">
            <path
               id="path390"
               class="s24"
               d="m 63.4,86.6 10.2,1.2 v 0.3 L 63.4,86.9 Z" />
          </g>
          <g
             id="g392">
            <path
               id="path394"
               class="s25"
               d="m 63.4,86.3 10.2,1.2 v 0.3 L 63.4,86.6 Z" />
          </g>
          <g
             id="g396">
            <path
               id="path398"
               class="s26"
               d="m 63.4,86 10.2,1.2 v 0.3 L 63.4,86.3 Z" />
          </g>
          <g
             id="g400">
            <path
               id="path402"
               class="s27"
               d="m 63.4,85.8 10.2,1.1 v 0.3 L 63.4,86 Z" />
          </g>
          <g
             id="g404">
            <path
               id="path406"
               class="s28"
               d="m 63.4,85.5 10.2,1.1 v 0.3 L 63.4,85.8 Z" />
          </g>
          <g
             id="g408">
            <path
               id="path410"
               class="s29"
               d="m 63.4,85.2 10.2,1.1 v 0.3 L 63.4,85.5 Z" />
          </g>
          <g
             id="g412">
            <path
               id="path414"
               class="s30"
               d="M 63.4,84.9 73.6,86 v 0.3 L 63.4,85.2 Z" />
          </g>
          <g
             id="g416">
            <path
               id="path418"
               class="s31"
               d="m 63.4,84.6 10.2,1.1 V 86 L 63.4,84.9 Z" />
          </g>
          <g
             id="g420">
            <path
               id="path422"
               class="s32"
               d="m 63.4,84.3 10.2,1.1 v 0.3 L 63.4,84.6 Z" />
          </g>
          <g
             id="g424">
            <path
               id="path426"
               class="s33"
               d="m 63.4,84 10.2,1.1 v 0.3 L 63.4,84.3 Z" />
          </g>
          <g
             id="g428">
            <path
               id="path430"
               class="s34"
               d="m 63.4,83.7 10.2,1.1 v 0.3 L 63.4,84 Z" />
          </g>
          <g
             id="g432">
            <path
               id="path434"
               class="s35"
               d="m 63.4,83.4 10.2,1.1 v 0.3 L 63.4,83.7 Z" />
          </g>
          <g
             id="g436">
            <path
               id="path438"
               class="s36"
               d="m 63.4,83.1 10.2,1.1 v 0.3 L 63.4,83.4 Z" />
          </g>
          <g
             id="g440">
            <path
               id="path442"
               class="s37"
               d="M 63.4,82.8 73.6,84 v 0.2 L 63.4,83.1 Z" />
          </g>
          <g
             id="g444">
            <path
               id="path446"
               class="s38"
               d="m 63.4,82.5 10.2,1.2 V 84 L 63.4,82.8 Z" />
          </g>
          <g
             id="g448">
            <path
               id="path450"
               class="s39"
               d="m 63.4,82.2 10.2,1.2 v 0.3 L 63.4,82.5 Z" />
          </g>
          <g
             id="g452">
            <path
               id="path454"
               class="s40"
               d="m 63.4,81.9 10.2,1.2 v 0.3 L 63.4,82.2 Z" />
          </g>
          <g
             id="g456">
            <path
               id="path458"
               class="s41"
               d="m 63.4,81.7 10.2,1.1 v 0.3 L 63.4,81.9 Z" />
          </g>
          <g
             id="g460">
            <path
               id="path462"
               class="s42"
               d="m 63.4,81.4 10.2,1.1 v 0.3 L 63.4,81.7 Z" />
          </g>
          <g
             id="g464">
            <path
               id="path466"
               class="s43"
               d="m 63.4,81.1 10.2,1.1 v 0.3 L 63.4,81.4 Z" />
          </g>
          <g
             id="g468">
            <path
               id="path470"
               class="s44"
               d="m 63.4,80.8 10.2,1.1 v 0.3 L 63.4,81.1 Z" />
          </g>
          <g
             id="g472">
            <path
               id="path474"
               class="s45"
               d="m 63.4,80.5 10.2,1.1 v 0.3 L 63.4,80.8 Z" />
          </g>
          <g
             id="g476">
            <path
               id="path478"
               class="s45"
               d="M 73.6,81.6 63.4,80.5 v -4.9 h 10.2 z" />
          </g>
        </g>
      </g>
    </g>
    <g
       id="g480">
      <g
         id="Clip-Path: g482"
         clip-path="url(#cp4)">
        <g
           id="g482">
          <g
             id="g488">
            <path
               id="path490"
               class="s46"
               d="m 67,92 c 0,0 -0.2,-0.1 -0.4,-0.3 -0.9,-0.9 -3.7,-3.9 -1.8,-7 0.8,-0.9 2.6,-3.5 2.2,-5 q -0.1,-0.6 -1,-0.9 l -0.7,-0.2 0.6,-0.5 C 66,78 67.6,76.7 69,77.4 q 1.4,0.6 1.5,3.2 0,0.4 0,0.9 v 0.2 c 0,0 -1.7,4.3 0.3,5.2 l 0.1,0.1 c 0,-0.1 0.3,-0.5 0.3,-2.5 -0.1,-0.3 -0.4,-2.3 0.3,-3.1 Q 71.8,81 72.3,81 h 0.3 l 0.1,0.2 c 0,0.1 1,1.9 1.3,3.4 q 0.1,0.5 0,0.9 l -0.8,-0.1 q 0,-0.3 -0.1,-0.7 c -0.1,-1 -0.7,-2.2 -1,-2.8 -0.3,0.5 -0.2,1.7 0,2.5 0,2.2 -0.3,3.2 -0.9,3.4 -0.3,0.1 -0.7,0 -0.8,-0.2 -2.6,-1.2 -1,-5.5 -0.7,-6.2 q 0,-0.4 -0.1,-0.8 c 0,-1.3 -0.4,-2.2 -0.9,-2.4 -0.5,-0.3 -1.2,-0.1 -1.6,0.2 q 0.6,0.4 0.8,1.1 c 0.6,2.1 -2.1,5.3 -2.4,5.7 -1.5,2.4 0.7,4.9 1.7,5.8 q 0.3,0.3 0.3,0.3 z" />
          </g>
          <g
             id="g492">
            <path
               id="path494"
               class="s45"
               d="m 69.3,97 c 0,0 0.9,-4.7 1.7,-5.4 0,0 2.5,-3.6 3.4,-3.6 l 10.7,0.1 c 0,0 5.4,5.9 5.7,7.3 l 3.4,2.4 -3.6,6.6 -4.1,1.5 c 0,0 -9,-2.3 -14.5,-2 0,0 -6.1,-1.5 -3.1,-3.2 0,0 10.9,-1.9 12.4,-2.4 0,0 1.2,-5.4 -4.6,-6.3 0,0 -3.4,3.8 -3.9,5.1 0,0 -4.7,4.3 -3.5,-0.1 z" />
          </g>
          <g
             id="g496">
            <path
               id="path498"
               fill-rule="evenodd"
               class="s47"
               d="m 86.5,106.6 h -0.2 c -0.1,-0.1 -8.9,-2.3 -14.2,-2.1 H 72 71.9 c -1.3,-0.3 -4.2,-1.1 -4.4,-2.6 q -0.2,-1 1.1,-1.7 l 0.2,-0.1 c 2.8,-0.5 10,-1.8 11.9,-2.3 0.1,-0.7 0.1,-2.1 -0.7,-3.3 q -0.9,-1.3 -3,-1.8 c -1.4,1.5 -3.2,3.8 -3.6,4.6 l -0.1,0.3 c -0.4,0.3 -2.3,2 -3.6,2 -0.4,0 -0.7,-0.1 -0.9,-0.4 -0.4,-0.5 -0.4,-1.2 -0.1,-2.4 0.3,-1.4 1,-4.7 1.8,-5.6 1.2,-1.8 2.9,-3.8 3.9,-3.8 l 10.9,0.1 0.2,0.2 c 1.3,1.3 5.2,5.6 5.8,7.3 l 3.7,2.6 -3.9,7.3 z m -13.6,-3.4 c 5.1,0 12.2,1.7 13.5,2.1 l 3.8,-1.4 3.1,-6 -3.1,-2.1 -0.1,-0.3 C 90,94.8 87.3,91.5 84.7,88.8 L 74.4,88.6 C 74,88.7 72.7,90.3 71.5,92 l -0.1,0.1 c -0.4,0.4 -1.1,2.9 -1.5,5 -0.2,1 -0.1,1.3 -0.1,1.3 0.4,-0.1 1.6,-0.9 2.5,-1.7 0.7,-1.5 3.6,-4.7 3.9,-5.1 l 0.3,-0.3 0.3,0.1 q 2.9,0.4 4.2,2.4 c 1.4,2 0.9,4.5 0.9,4.6 l -0.1,0.3 -0.3,0.2 c -1.4,0.5 -11.1,2.2 -12.4,2.4 -0.3,0.3 -0.4,0.4 -0.4,0.4 0.1,0.4 1.7,1.1 3.4,1.5 q 0.4,0 0.8,0 z" />
          </g>
          <g
             id="g500">
            <path
               id="path502"
               class="s47"
               d="m 66.8,105.4 c 2,-8.8 19.4,-25.1 19.4,-25.1 6,-3.9 5.9,-0.9 5.9,-0.9 -8.3,0.6 -24.5,26.3 -24.5,26.3 z" />
          </g>
          <g
             id="g504">
            <path
               id="path506"
               class="s50"
               d="m 75.2,91.7 c 0,0 -1.8,-8.1 1.2,-6.2 0,0 0.6,2.7 0.4,3.8 -0.2,1.1 -1.6,2.4 -1.6,2.4 z" />
          </g>
          <g
             id="g508">
            <path
               id="path510"
               fill-rule="evenodd"
               class="s47"
               d="m 75,92.1 v -0.3 c -0.2,-0.6 -1.1,-5.2 -0.1,-6.4 0.4,-0.5 0.9,-0.5 1.6,0 h 0.1 v 0.1 c 0,0.1 0.6,2.7 0.4,3.8 -0.2,1.2 -1.6,2.5 -1.7,2.6 z m 0.6,-6.7 q -0.2,0 -0.4,0.2 c -0.7,0.9 -0.2,4.1 0.1,5.6 0.4,-0.4 1.1,-1.2 1.3,-2 0.1,-0.9 -0.3,-3.1 -0.4,-3.6 q -0.4,-0.2 -0.6,-0.2 z" />
          </g>
          <g
             id="g512">
            <path
               id="path514"
               class="s50"
               d="m 77.5,89.4 c 0,0 -1.5,-6.9 1.1,-5.3 0,0 0.5,2.3 0.3,3.2 -0.2,1 -1.4,2.1 -1.4,2.1 z" />
          </g>
          <g
             id="g516">
            <path
               id="path518"
               fill-rule="evenodd"
               class="s47"
               d="m 77.4,89.8 -0.1,-0.4 c -0.1,-0.4 -0.9,-4.3 0,-5.4 0.3,-0.4 0.8,-0.4 1.4,-0.1 l 0.1,0.1 v 0.1 c 0,0.1 0.5,2.3 0.3,3.3 -0.2,1 -1.4,2.1 -1.4,2.1 z m 0.5,-5.7 q -0.2,0 -0.3,0.2 c -0.6,0.7 -0.2,3.3 0,4.7 0.4,-0.4 1,-1.1 1.1,-1.7 0.1,-0.7 -0.2,-2.6 -0.3,-3 q -0.3,-0.2 -0.5,-0.2 z" />
          </g>
          <g
             id="g520">
            <path
               id="path522"
               class="s50"
               d="m 79.4,87.5 c 0,0 -1.5,-6.5 1.1,-5 0,0 0.5,2.1 0.3,3 -0.2,0.9 -1.4,2 -1.4,2 z" />
          </g>
          <g
             id="g524">
            <path
               id="path526"
               fill-rule="evenodd"
               class="s47"
               d="m 79.3,87.9 -0.1,-0.4 c -0.1,-0.4 -0.9,-4.1 0,-5.1 0.3,-0.4 0.8,-0.5 1.4,-0.1 l 0.1,0.1 c 0,0.1 0.5,2.2 0.3,3.2 -0.2,0.9 -1.4,2 -1.4,2 z m 0.5,-5.4 q -0.2,0 -0.3,0.2 c -0.6,0.7 -0.2,3.2 0,4.4 0.4,-0.3 1,-1 1.1,-1.5 0.1,-0.8 -0.3,-2.5 -0.3,-2.9 Q 80,82.5 79.8,82.5 Z" />
          </g>
          <g
             id="g528">
            <path
               id="path530"
               class="s50"
               d="m 81.5,85.1 c 0,0 -1.4,-5 0.9,-3.8 0,0 0.4,1.6 0.3,2.3 -0.2,0.7 -1.2,1.5 -1.2,1.5 z" />
          </g>
          <g
             id="g532">
            <path
               id="path534"
               fill-rule="evenodd"
               class="s47"
               d="m 81.3,85.5 -0.1,-0.3 c 0,-0.3 -0.7,-3.1 0,-4 0.2,-0.4 0.7,-0.4 1.3,-0.1 h 0.1 v 0.1 c 0,0.1 0.5,1.7 0.3,2.5 -0.2,0.7 -1.2,1.5 -1.3,1.6 z m 0.4,-4.2 q -0.1,0 -0.2,0.2 c -0.5,0.5 -0.2,2.3 0,3.3 0.4,-0.3 0.8,-0.8 0.9,-1.2 0.1,-0.5 -0.1,-1.7 -0.2,-2.2 q -0.3,-0.1 -0.5,-0.1 z" />
          </g>
          <g
             id="g536">
            <path
               id="path538"
               class="s50"
               d="m 83,83.1 c 0,0 -1.2,-4.1 0.8,-3.1 0,0 0.4,1.3 0.3,1.9 -0.2,0.6 -1.1,1.2 -1.1,1.2 z" />
          </g>
          <g
             id="g540">
            <path
               id="path542"
               fill-rule="evenodd"
               class="s47"
               d="m 82.8,83.5 v -0.3 c -0.1,-0.3 -0.7,-2.5 -0.1,-3.3 q 0.4,-0.5 1.2,-0.1 H 84 v 0.1 c 0,0.2 0.4,1.5 0.3,2.1 -0.2,0.6 -1.1,1.2 -1.2,1.3 z m 0.4,-3.4 q -0.2,0 -0.2,0.1 c -0.4,0.4 -0.2,1.7 0,2.6 0.3,-0.2 0.7,-0.6 0.8,-0.9 0.1,-0.4 -0.1,-1.3 -0.2,-1.7 q -0.2,-0.1 -0.4,-0.1 z" />
          </g>
          <g
             id="g544">
            <path
               id="path546"
               class="s50"
               d="m 84.4,81.8 c 0,0 -1,-3.4 0.7,-2.6 0,0 0.3,1.1 0.2,1.6 -0.1,0.4 -0.9,1 -0.9,1 z" />
          </g>
          <g
             id="g548">
            <path
               id="path550"
               fill-rule="evenodd"
               class="s47"
               d="m 84.3,82.1 -0.1,-0.3 c -0.1,-0.2 -0.6,-2 -0.1,-2.7 q 0.4,-0.4 1.1,-0.1 h 0.1 v 0.1 c 0,0.1 0.3,1.2 0.2,1.7 -0.1,0.5 -0.9,1.1 -1,1.1 z m 0.4,-2.8 q -0.1,0 -0.2,0.1 c -0.2,0.3 -0.1,1.3 0.1,2 0.2,-0.2 0.5,-0.5 0.5,-0.7 0.1,-0.2 0,-0.9 -0.2,-1.3 q -0.1,-0.1 -0.2,-0.1 z" />
          </g>
          <g
             id="g552">
            <path
               id="path554"
               class="s50"
               d="m 85.6,80.7 c 0,0 -0.8,-2.2 0.5,-1.7 0,0 0.3,0.8 0.2,1.1 -0.1,0.3 -0.7,0.6 -0.7,0.6 z" />
          </g>
          <g
             id="g556">
            <path
               id="path558"
               fill-rule="evenodd"
               class="s47"
               d="m 85.5,81 -0.1,-0.2 c -0.1,-0.2 -0.5,-1.3 -0.1,-1.8 0.1,-0.2 0.4,-0.4 0.9,-0.2 h 0.1 v 0.1 c 0.1,0.2 0.3,0.9 0.2,1.2 -0.1,0.4 -0.7,0.8 -0.8,0.8 z m 0.3,-1.9 q -0.1,0 -0.2,0.1 c -0.1,0.2 0,0.7 0.1,1.2 0.2,-0.2 0.4,-0.3 0.4,-0.4 0.1,-0.2 0,-0.6 -0.1,-0.8 q -0.1,-0.1 -0.2,-0.1 z" />
          </g>
          <g
             id="g560">
            <path
               id="path562"
               class="s50"
               d="m 86.9,79.8 c 0,0 -0.6,-1.9 0.4,-1.5 0,0 0.2,0.7 0.1,0.9 0,0.3 -0.5,0.6 -0.5,0.6 z" />
          </g>
          <g
             id="g564">
            <path
               id="path566"
               fill-rule="evenodd"
               class="s47"
               d="m 86.8,80.1 -0.1,-0.2 c -0.1,-0.2 -0.4,-1.2 -0.1,-1.7 q 0.3,-0.3 0.8,-0.1 l 0.1,0.1 c 0.1,0.2 0.2,0.8 0.2,1.1 -0.1,0.3 -0.6,0.6 -0.7,0.7 z m 0.3,-1.7 q -0.1,0 -0.1,0 c -0.1,0.2 -0.1,0.6 0,1 0.2,-0.1 0.3,-0.2 0.3,-0.3 0,-0.1 -0.1,-0.4 -0.1,-0.7 q -0.1,0 -0.1,0 z" />
          </g>
          <g
             id="g568">
            <path
               id="path570"
               class="s50"
               d="m 89.1,78.8 c 0,0 -0.6,-2 0.5,-1.5 0,0 0.2,0.6 0.1,0.9 -0.1,0.3 -0.6,0.6 -0.6,0.6 z" />
          </g>
          <g
             id="g572">
            <path
               id="path574"
               fill-rule="evenodd"
               class="s47"
               d="m 89,79.1 -0.1,-0.2 c 0,-0.3 -0.3,-1.3 0,-1.7 q 0.2,-0.3 0.7,-0.1 h 0.1 l 0.1,0.1 c 0,0.1 0.2,0.7 0.1,1.1 -0.1,0.3 -0.6,0.6 -0.7,0.7 z m 0.3,-1.7 q 0,0 0,0 c -0.1,0.1 -0.1,0.6 0,1 0.1,-0.1 0.2,-0.2 0.2,-0.3 0,-0.1 0,-0.5 -0.1,-0.7 q -0.1,0 -0.1,0 z" />
          </g>
          <g
             id="g576">
            <path
               id="path578"
               class="s50"
               d="m 88.2,79.1 c 0,0 -0.6,-2 0.4,-1.5 0,0 0.2,0.6 0.2,0.9 -0.1,0.3 -0.6,0.6 -0.6,0.6 z" />
          </g>
          <g
             id="g580">
            <path
               id="path582"
               fill-rule="evenodd"
               class="s47"
               d="M 88.1,79.4 88,79.1 c -0.1,-0.2 -0.4,-1.2 -0.1,-1.6 q 0.3,-0.3 0.8,-0.1 h 0.1 v 0.1 c 0.1,0.1 0.3,0.7 0.2,1 -0.1,0.4 -0.6,0.7 -0.7,0.8 z m 0.3,-1.7 q -0.1,0 -0.1,0 c -0.1,0.1 0,0.6 0.1,1 0.1,-0.1 0.2,-0.2 0.2,-0.3 0,-0.1 0,-0.5 -0.1,-0.7 q -0.1,0 -0.1,0 z" />
          </g>
          <g
             id="g584">
            <path
               id="path586"
               class="s50"
               d="m 91.2,78.5 c 0,0 -0.6,-2 0.4,-1.5 0,0 0.2,0.6 0.1,0.9 0,0.3 -0.5,0.6 -0.5,0.6 z" />
          </g>
          <g
             id="g588">
            <path
               id="path590"
               fill-rule="evenodd"
               class="s47"
               d="M 91.1,78.8 91,78.6 c -0.1,-0.2 -0.4,-1.3 -0.1,-1.7 q 0.3,-0.3 0.8,-0.1 h 0.1 v 0.1 c 0,0.1 0.2,0.8 0.1,1.1 0,0.3 -0.5,0.6 -0.6,0.7 z m 0.3,-1.7 q -0.1,0 -0.1,0 c -0.1,0.2 -0.1,0.6 0,1 0.2,-0.1 0.2,-0.2 0.3,-0.3 0,-0.1 -0.1,-0.5 -0.1,-0.7 q -0.1,0 -0.1,0 z" />
          </g>
          <g
             id="g592">
            <path
               id="path594"
               class="s50"
               d="m 90.1,78.6 c 0,0 -0.6,-2 0.5,-1.5 0,0 0.2,0.6 0.1,0.9 -0.1,0.3 -0.6,0.6 -0.6,0.6 z" />
          </g>
          <g
             id="g596">
            <path
               id="path598"
               fill-rule="evenodd"
               class="s47"
               d="m 90,78.9 -0.1,-0.2 c 0,-0.2 -0.3,-1.3 0,-1.7 q 0.2,-0.3 0.8,-0.1 h 0.1 V 77 c 0,0.1 0.2,0.7 0.1,1.1 -0.1,0.3 -0.5,0.6 -0.6,0.7 z m 0.2,-1.7 q 0,0 0,0 c -0.1,0.2 -0.1,0.6 0,1 0.1,-0.1 0.2,-0.2 0.2,-0.3 0.1,-0.1 0,-0.5 -0.1,-0.7 q 0,0 -0.1,0 z" />
          </g>
          <g
             id="g600">
            <path
               id="path602"
               class="s50"
               d="m 77.9,91.5 c 0,0 6.2,0 1.3,-1.7 z" />
          </g>
          <g
             id="g604">
            <path
               id="path606"
               fill-rule="evenodd"
               class="s47"
               d="m 77.9,91.8 h -0.5 l 1.8,-2.3 0.1,0.1 c 1.5,0.5 2.1,0.9 2,1.4 -0.1,0.7 -2.2,0.8 -3.4,0.8 z m 1.4,-1.7 -1,1.2 c 1.3,0 2.5,-0.2 2.6,-0.4 0,0 -0.1,-0.3 -1.6,-0.8 z" />
          </g>
          <g
             id="g608">
            <path
               id="path610"
               class="s50"
               d="m 79.7,89.4 c 0,0 4.7,0 1.1,-1.2 z" />
          </g>
          <g
             id="g612">
            <path
               id="path614"
               fill-rule="evenodd"
               class="s47"
               d="m 79.8,89.6 h -0.6 l 1.5,-1.7 0.2,0.1 c 1.1,0.4 1.5,0.7 1.4,1 0,0.2 -0.1,0.6 -2.5,0.6 z m 1.1,-1.2 -0.7,0.8 c 0.9,-0.1 1.5,-0.2 1.7,-0.3 -0.1,0 -0.3,-0.2 -1,-0.5 z" />
          </g>
          <g
             id="g616">
            <path
               id="path618"
               class="s50"
               d="m 80.8,87.7 c 0,0 4.8,0.6 1.3,-1.1 z" />
          </g>
          <g
             id="g620">
            <path
               id="path622"
               fill-rule="evenodd"
               class="s47"
               d="m 82.2,88 c -0.7,0 -1.4,-0.1 -1.5,-0.1 h -0.5 l 1.8,-1.6 0.2,0.1 c 1.2,0.6 1.4,0.9 1.4,1.2 -0.1,0.3 -0.5,0.4 -1.4,0.4 z m -0.9,-0.4 c 0.2,0 0.6,0 0.9,0 0.6,0 0.8,-0.1 0.9,-0.1 0,-0.1 -0.2,-0.3 -1,-0.7 z" />
          </g>
          <g
             id="g624">
            <path
               id="path626"
               class="s50"
               d="m 83,85.6 c 0,0 4.5,0.5 1,-1.2 z" />
          </g>
          <g
             id="g628">
            <path
               id="path630"
               fill-rule="evenodd"
               class="s47"
               d="M 84.3,85.9 C 83.7,85.9 83,85.8 83,85.8 h -0.4 l 1.3,-1.6 h 0.2 c 1.3,0.7 1.5,1 1.5,1.3 -0.1,0.3 -0.5,0.4 -1.3,0.4 z m -0.8,-0.5 c 0.2,0.1 0.5,0.1 0.8,0.1 0.5,0 0.8,-0.1 0.8,-0.1 0,-0.1 -0.2,-0.3 -1,-0.7 z" />
          </g>
          <g
             id="g632">
            <path
               id="path634"
               class="s50"
               d="m 84.6,83.9 c 0,0 3.2,0.5 1,-0.8 z" />
          </g>
          <g
             id="g636">
            <path
               id="path638"
               class="s47"
               d="m 85.6,84.2 c -0.5,0 -1,0 -1,0 l -0.5,-0.1 1.4,-1.3 0.2,0.1 c 0.7,0.4 0.9,0.7 0.8,1 0,0.3 -0.5,0.3 -0.9,0.3 z" />
          </g>
          <g
             id="g640">
            <path
               id="path642"
               class="s50"
               d="m 86.1,82.5 1.1,-1 c 0,0 2.6,2.2 -1.1,1 z" />
          </g>
          <g
             id="g644">
            <path
               id="path646"
               fill-rule="evenodd"
               class="s47"
               d="m 87.7,83.1 q -0.5,0 -1.7,-0.4 l -0.3,-0.1 1.5,-1.3 0.2,0.1 c 0.4,0.3 1.1,1 0.9,1.4 q -0.1,0.3 -0.6,0.3 z m -1.2,-0.7 q 0.9,0.2 1.2,0.2 c 0.2,0 0.2,0 0.2,0 0,-0.1 -0.3,-0.4 -0.7,-0.8 z" />
          </g>
          <g
             id="g648">
            <path
               id="path650"
               class="s50"
               d="m 87.9,81.3 c 0,0 2.5,1.1 2.4,0.3 0,0 -1.2,-2.3 -2.4,-0.3 z" />
          </g>
          <g
             id="g652">
            <path
               id="path654"
               fill-rule="evenodd"
               class="s47"
               d="m 90,82.1 c -0.7,0 -2.2,-0.6 -2.2,-0.6 l -0.3,-0.2 0.2,-0.2 q 0.6,-0.8 1.2,-0.8 c 0.9,0 1.6,1.2 1.6,1.3 0,0.2 0,0.3 -0.1,0.4 q -0.1,0.1 -0.4,0.1 z m -1.8,-0.9 c 0.5,0.2 1.3,0.5 1.8,0.5 q 0.1,0 0.1,0 c -0.2,-0.3 -0.7,-1 -1.2,-1 q -0.3,0 -0.7,0.5 z" />
          </g>
          <g
             id="g656">
            <path
               id="path658"
               class="s50"
               d="m 89.7,80.2 c 0,0 1.3,-0.7 1.6,-0.6 0,0 1.2,1.2 0.8,1.9 0,0 0.1,1.2 -2.4,-1.3 z" />
          </g>
          <g
             id="g660">
            <path
               id="path662"
               fill-rule="evenodd"
               class="s47"
               d="M 91.8,82 C 91.5,82 91,81.8 89.6,80.3 L 89.4,80.1 89.6,80 c 0.2,-0.1 1.1,-0.6 1.5,-0.6 q 0.2,0 0.3,0.1 c 0.2,0.1 1.4,1.3 0.9,2.1 0,0 -0.1,0.2 -0.2,0.3 0,0 -0.1,0.1 -0.3,0.1 z m -1.7,-1.8 c 1.3,1.4 1.7,1.4 1.7,1.4 q 0,0 0,-0.1 v -0.1 h 0.1 c 0.3,-0.5 -0.5,-1.3 -0.8,-1.6 -0.2,0 -0.7,0.2 -1,0.4 z" />
          </g>
          <g
             id="g664">
            <path
               id="path666"
               class="s50"
               d="m 92.6,79.4 c 1.7,1.9 0,1.2 0,1.2 -0.1,-0.3 -0.5,-1 -0.5,-1 z" />
          </g>
          <g
             id="g668">
            <path
               id="path670"
               fill-rule="evenodd"
               class="s47"
               d="m 93.1,80.9 c -0.2,0 -0.5,-0.1 -0.5,-0.1 h -0.1 l -0.1,-0.1 c 0,-0.3 -0.4,-0.8 -0.5,-1 l -0.2,-0.2 1,-0.3 v 0.1 c 0.9,0.9 1,1.2 0.9,1.4 -0.1,0.1 -0.2,0.2 -0.5,0.2 z m -0.3,-0.4 c 0.1,0 0.3,0 0.4,0 -0.1,-0.1 -0.2,-0.3 -0.7,-0.8 h -0.1 c 0.1,0.2 0.3,0.5 0.4,0.8 z" />
          </g>
          <g
             id="g672">
            <path
               id="path674"
               class="s50"
               d="m 92.1,78.3 c 0,0 0.8,-0.6 1.1,-0.2 0,0 -0.1,0.5 -0.6,0.8 -0.4,0.2 -0.5,-0.6 -0.5,-0.6 z" />
          </g>
          <g
             id="g676">
            <path
               id="path678"
               class="s47"
               d="m 92.5,79.1 c -0.4,0 -0.6,-0.5 -0.6,-0.8 V 78.2 H 92 c 0,-0.1 0.5,-0.4 0.9,-0.4 q 0.3,0 0.5,0.2 l 0.1,0.1 -0.1,0.1 c 0,0 -0.1,0.6 -0.7,0.9 q -0.1,0 -0.2,0 z" />
          </g>
          <g
             id="g680">
            <path
               id="path682"
               class="s51"
               d="m 70.9,104.1 c 0,0 4.6,5.6 4.3,0.1" />
          </g>
          <g
             id="g684">
            <path
               id="path686"
               class="s47"
               d="m 74.3,107.3 c -1.5,0 -3.3,-2.1 -3.9,-2.7 l 1,-0.9 c 1.1,1.3 2.5,2.4 2.9,2.3 0.1,-0.1 0.4,-0.5 0.3,-1.8 h 1.3 c 0,0.6 0.1,2.5 -1.1,3 q -0.3,0.1 -0.5,0.1 z" />
          </g>
          <g
             id="g688">
            <path
               id="path690"
               class="s51"
               d="m 79,104.9 c 0,0 -1.3,3.2 -3.3,-0.5" />
          </g>
          <g
             id="g692">
            <path
               id="path694"
               class="s47"
               d="m 77.6,106.9 q -1.3,0 -2.5,-2.2 l 1.1,-0.6 c 0.6,1.1 1.1,1.5 1.4,1.5 q 0,0 0,0 c 0.3,-0.1 0.7,-0.6 0.8,-0.9 l 1.2,0.4 c -0.1,0.2 -0.7,1.7 -1.9,1.7 q -0.1,0 -0.1,0.1 z" />
          </g>
          <g
             id="g696">
            <path
               id="path698"
               class="s52"
               d="m 40.8,165 2.1,-6 1.4,0.4 -0.9,2.7 3.8,-1.7 1.9,0.7 -3.4,1.5 1.5,4.6 -1.9,-0.6 -0.9,-3.5 -1.5,0.6 -0.7,1.8 z" />
          </g>
          <g
             id="g700">
            <path
               id="path702"
               fill-rule="evenodd"
               class="s52"
               d="m 54.9,169.1 -1.6,-0.4 -0.3,-1.5 -2.9,-0.7 -0.9,1.2 -1.6,-0.4 4.4,-5.5 1.5,0.4 z m -2.1,-3.1 -0.4,-2.6 -1.6,2.1 z" />
          </g>
          <g
             id="g704">
            <path
               id="path706"
               class="s52"
               d="m 56.9,169.4 0.9,-5.2 -2.2,-0.4 0.2,-1.1 5.9,1 -0.2,1.1 -2.2,-0.4 -0.9,5.3 z" />
          </g>
          <g
             id="g708">
            <path
               id="path710"
               class="s52"
               d="m 61.9,170.2 0.6,-6.4 1.5,0.2 -0.3,2.5 3,0.3 0.2,-2.6 1.5,0.2 -0.5,6.4 -1.5,-0.2 0.2,-2.8 -3,-0.2 -0.2,2.8 z" />
          </g>
          <g
             id="g712">
            <path
               id="path714"
               class="s52"
               d="m 69.8,170.9 v -6.4 H 72 l 1.4,4.3 1.3,-4.3 H 77 v 6.4 h -1.4 v -5.1 l -1.5,5.1 h -1.4 l -1.5,-5.1 v 5.1 z" />
          </g>
          <g
             id="g716">
            <path
               id="path718"
               fill-rule="evenodd"
               class="s52"
               d="m 85.6,170.1 -1.6,0.2 -0.8,-1.4 -3,0.3 -0.5,1.5 -1.6,0.1 2.3,-6.6 1.6,-0.2 z m -3,-2.3 -1.2,-2.2 -0.8,2.4 z" />
          </g>
          <g
             id="g720">
            <path
               id="path722"
               class="s52"
               d="m 86.8,169.9 -1.1,-6.3 1.4,-0.2 3.8,3.6 -0.8,-4.2 1.4,-0.2 1.2,6.3 -1.5,0.2 -3.8,-3.5 0.8,4.1 z" />
          </g>
          <g
             id="g724">
            <path
               id="path726"
               fill-rule="evenodd"
               class="s52"
               d="m 92.9,162.3 2.6,-0.8 q 0.9,-0.2 1.4,-0.3 0.7,0 1.3,0.3 0.6,0.3 1,0.8 0.4,0.5 0.6,1.4 0.2,0.8 0.2,1.4 -0.1,0.7 -0.5,1.3 -0.3,0.4 -0.9,0.8 -0.4,0.2 -1.3,0.5 l -2.7,0.7 z m 1.8,0.7 1.1,4.1 1.1,-0.3 q 0.6,-0.2 0.9,-0.3 0.3,-0.2 0.5,-0.5 0.2,-0.2 0.2,-0.7 0,-0.4 -0.2,-1.1 -0.2,-0.8 -0.4,-1.1 -0.3,-0.3 -0.6,-0.5 -0.3,-0.1 -0.8,-0.1 -0.3,0 -1.2,0.3 z" />
          </g>
          <g
             id="g728">
            <path
               id="path730"
               class="s52"
               d="m 99.9,160.2 1.4,-0.5 1.3,3.2 q 0.3,0.8 0.4,1 0.3,0.3 0.7,0.4 0.4,0.1 1,-0.1 0.6,-0.3 0.8,-0.6 0.3,-0.3 0.2,-0.7 -0.1,-0.3 -0.3,-1 l -1.3,-3.3 1.4,-0.6 1.2,3.2 q 0.4,1.1 0.5,1.6 0.1,0.4 -0.1,0.9 -0.2,0.4 -0.7,0.8 -0.4,0.4 -1.2,0.7 -1,0.4 -1.6,0.4 -0.6,0 -1.1,-0.2 -0.4,-0.2 -0.6,-0.5 -0.3,-0.5 -0.7,-1.5 z" />
          </g>
          <g
             id="g732">
            <path
               id="path734"
               class="s52"
               d="m 44.8,137.1 3.1,-6.8 5,2.3 -0.5,1.1 -3.7,-1.6 -0.7,1.5 3.4,1.5 -0.5,1.2 -3.4,-1.6 -0.8,1.9 3.8,1.7 -0.6,1.2 z" />
          </g>
          <g
             id="g736">
            <path
               id="path738"
               class="s52"
               d="m 52,137.7 1.5,0.3 q -0.1,0.7 0.2,1.2 0.3,0.4 0.9,0.6 0.7,0.3 1.2,0.1 0.4,-0.2 0.5,-0.6 0.1,-0.2 0,-0.5 -0.1,-0.2 -0.4,-0.4 -0.2,-0.2 -1.1,-0.7 -1,-0.7 -1.4,-1.2 -0.4,-0.8 -0.2,-1.7 0.2,-0.5 0.7,-0.9 0.4,-0.4 1.1,-0.4 0.7,-0.1 1.5,0.2 1.3,0.4 1.8,1.2 0.5,0.8 0.2,1.8 l -1.4,-0.4 q 0.1,-0.6 -0.2,-0.9 -0.2,-0.4 -0.8,-0.6 -0.6,-0.2 -1.1,0 -0.3,0.1 -0.3,0.4 -0.1,0.2 0,0.5 0.2,0.3 1.2,0.9 1,0.5 1.4,1 0.4,0.4 0.6,0.9 0.1,0.6 -0.1,1.3 -0.2,0.6 -0.7,1 -0.5,0.4 -1.2,0.5 -0.8,0.1 -1.7,-0.2 -1.3,-0.5 -1.9,-1.3 -0.5,-0.9 -0.3,-2.1 z" />
          </g>
          <g
             id="g740">
            <path
               id="path742"
               class="s52"
               d="m 60.6,142.6 1.2,-6.1 -2.2,-0.4 0.2,-1.3 5.9,1.2 -0.3,1.2 -2.1,-0.4 -1.3,6.1 z" />
          </g>
          <g
             id="g744">
            <path
               id="path746"
               fill-rule="evenodd"
               class="s52"
               d="m 66.4,136.1 2.7,0.2 q 0.9,0.1 1.4,0.3 0.7,0.2 1.1,0.8 0.4,0.5 0.6,1.2 0.2,0.8 0.1,1.8 -0.1,0.9 -0.4,1.6 -0.3,0.8 -0.9,1.2 -0.4,0.4 -1.1,0.5 -0.5,0.2 -1.3,0.1 l -2.9,-0.3 z m 1.4,1.4 -0.4,5 1.1,0.1 q 0.7,0 0.9,0 0.4,-0.1 0.7,-0.3 0.2,-0.2 0.4,-0.7 0.2,-0.4 0.3,-1.3 0.1,-0.9 0,-1.4 -0.2,-0.4 -0.4,-0.7 -0.3,-0.3 -0.7,-0.4 -0.3,-0.1 -1.2,-0.2 z" />
          </g>
          <g
             id="g748">
            <path
               id="path750"
               class="s52"
               d="m 73.7,144 v -1.4 h 1.4 v 1.5 z" />
          </g>
          <g
             id="g752">
            <path
               id="path754"
               class="s52"
               d="m 86.5,143 -1.5,0.3 -0.8,-5.4 q -0.7,0.9 -1.7,1.4 L 82.3,138 q 0.6,-0.3 1.1,-0.9 0.6,-0.6 0.7,-1.3 l 1.2,-0.2 z" />
          </g>
          <g
             id="g756">
            <path
               id="path758"
               fill-rule="evenodd"
               class="s52"
               d="m 88.6,140.9 1.4,-0.5 q 0.1,0.4 0.4,0.5 0.2,0.2 0.6,0.1 0.4,-0.1 0.6,-0.6 0.2,-0.5 0,-1.7 -0.4,0.7 -1.2,0.9 -0.8,0.2 -1.6,-0.3 -0.8,-0.5 -1.1,-1.5 -0.3,-1.1 0.2,-2 0.5,-0.8 1.5,-1.1 1.1,-0.3 2,0.4 1,0.7 1.5,2.6 0.5,2 0,3.1 -0.6,1.1 -1.7,1.4 -0.9,0.2 -1.5,-0.1 -0.7,-0.4 -1.1,-1.2 z M 91,137 q -0.1,-0.6 -0.6,-0.9 -0.4,-0.3 -0.8,-0.2 -0.3,0.1 -0.5,0.4 -0.2,0.4 0,1.1 0.2,0.7 0.5,1 0.4,0.2 0.8,0.1 0.4,-0.1 0.6,-0.5 0.2,-0.4 0,-1 z" />
          </g>
          <g
             id="g760">
            <path
               id="path762"
               fill-rule="evenodd"
               class="s52"
               d="m 94.9,136.7 q -0.6,0 -1,-0.3 -0.3,-0.3 -0.5,-0.8 -0.3,-0.8 0.1,-1.5 0.3,-0.7 1.3,-1 1.1,-0.4 1.8,-0.1 0.7,0.3 1,1.1 0.2,0.5 0.1,1 -0.1,0.5 -0.5,0.8 0.6,0.1 1.1,0.4 0.5,0.3 0.7,0.9 0.3,1 -0.1,1.8 -0.4,0.9 -1.4,1.2 -1,0.4 -1.8,0.1 -1,-0.3 -1.3,-1.4 -0.2,-0.5 -0.1,-1.1 0.1,-0.6 0.6,-1.1 z m -0.2,-1.4 q 0.1,0.4 0.5,0.5 0.3,0.2 0.6,0 0.4,-0.1 0.6,-0.4 0.1,-0.3 0,-0.7 -0.2,-0.4 -0.5,-0.6 -0.3,-0.1 -0.7,0 -0.3,0.2 -0.5,0.5 -0.1,0.3 0,0.7 z m 1,3 q 0.2,0.6 0.6,0.8 0.3,0.2 0.8,0.1 0.4,-0.2 0.6,-0.6 0.1,-0.4 -0.1,-0.9 -0.2,-0.5 -0.5,-0.7 -0.4,-0.2 -0.9,-0.1 -0.4,0.2 -0.6,0.6 -0.1,0.4 0.1,0.8 z" />
          </g>
          <g
             id="g764">
            <path
               id="path766"
               class="s52"
               d="m 98.4,133.3 -0.5,-1.2 4.4,-2.1 0.4,0.9 q -0.3,0.8 -0.3,2.1 -0.1,1.3 0.1,2.6 0.2,1.3 0.7,2.2 l -1.3,0.5 q -0.6,-1.4 -0.8,-3.1 -0.1,-1.7 0.3,-3.3 z" />
          </g>
          <g
             id="g768">
            <path
               id="path770"
               class="s47"
               d="m 12.9,121.5 -1.8,-2.2 1.6,-1.3 5.2,6.2 -1.6,1.3 -1.8,-2.2 -6.6,5.5 -1.5,-1.8 z" />
          </g>
          <g
             id="g772">
            <path
               id="path774"
               fill-rule="evenodd"
               class="s47"
               d="m 18.4,125 c 0.6,0.4 1.5,1.1 2.4,2 1.2,1.1 1.8,2 1.9,2.9 0.1,0.8 -0.1,1.6 -0.8,2.3 -0.9,1 -2.2,1 -3.1,0.6 h -0.1 c 0.4,0.8 0.2,1.6 -0.3,2.4 -0.6,1.1 -1.3,2.4 -1.4,2.8 l -1.8,-1.7 c 0.1,-0.3 0.5,-1.1 1.2,-2.3 0.7,-1.1 0.6,-1.7 -0.1,-2.4 l -0.5,-0.5 -2.9,3 -1.7,-1.6 z m -1.4,4.9 0.7,0.7 c 0.8,0.8 1.8,0.8 2.4,0.2 0.7,-0.7 0.5,-1.5 -0.3,-2.3 -0.4,-0.4 -0.7,-0.6 -0.8,-0.7 z" />
          </g>
          <g
             id="g776">
            <path
               id="path778"
               class="s47"
               d="m 26.9,132.4 -6.6,8.2 -1.8,-1.5 6.6,-8.2 z" />
          </g>
          <g
             id="g780">
            <path
               id="path782"
               class="s47"
               d="m 24.2,143.5 2.4,-3.6 0.7,-7 2.3,1.5 -0.5,2.7 c -0.2,0.8 -0.3,1.4 -0.5,2.1 0.6,-0.4 1.2,-0.8 1.8,-1.2 l 2.3,-1.5 2.2,1.5 -6.3,3.1 -2.4,3.7 z" />
          </g>
          <g
             id="g784">
            <path
               id="path786"
               fill-rule="evenodd"
               class="s47"
               d="m 41.2,146.9 c -1.5,3.1 -4.4,4 -7.1,2.6 -2.8,-1.4 -3.4,-4.3 -2,-7 1.4,-2.8 4.3,-4 7,-2.6 2.9,1.4 3.4,4.4 2.1,7 z m -6.8,-3.3 c -1,1.8 -0.8,3.6 0.7,4.3 1.4,0.7 2.9,-0.2 3.8,-2.1 0.9,-1.7 0.8,-3.5 -0.7,-4.3 -1.4,-0.7 -2.9,0.3 -3.8,2.1 z" />
          </g>
          <g
             id="g788">
            <path
               id="path790"
               class="s47"
               d="m 49.6,155 c -0.8,0 -2.2,-0.1 -3.5,-0.6 -1.8,-0.6 -3,-1.5 -3.6,-2.7 -0.6,-1.2 -0.7,-2.6 -0.2,-4.1 1.2,-3.3 4.2,-4.4 7.5,-3.3 1.3,0.5 2.2,1.1 2.6,1.5 l -1.1,1.6 c -0.5,-0.4 -1.1,-0.8 -2.2,-1.2 -1.9,-0.7 -3.6,-0.1 -4.4,2.1 -0.7,2 0.2,3.7 2,4.3 0.6,0.2 1,0.3 1.2,0.3 l 0.7,-2.1 -1.5,-0.6 0.6,-1.7 3.7,1.2 z" />
          </g>
          <g
             id="g792">
            <path
               id="path794"
               class="s47"
               d="m 59.5,146.9 -0.6,4 3.9,0.6 0.6,-4 2.3,0.3 -1.6,10.5 -2.3,-0.4 0.7,-4.4 -3.9,-0.6 -0.7,4.4 -2.4,-0.4 1.7,-10.4 z" />
          </g>
          <g
             id="g796">
            <path
               id="path798"
               class="s47"
               d="m 69.8,148 -0.6,10.5 -2.4,-0.1 0.6,-10.5 z" />
          </g>
          <g
             id="g800">
            <path
               id="path802"
               class="s47"
               d="m 80.7,157.9 c -0.7,0.3 -2.1,0.7 -3.4,0.7 -2,0.1 -3.4,-0.3 -4.4,-1.2 -1,-0.9 -1.6,-2.3 -1.6,-3.8 -0.1,-3.5 2.3,-5.6 5.8,-5.7 1.3,-0.1 2.4,0.1 2.9,0.4 l -0.4,1.9 c -0.6,-0.2 -1.3,-0.4 -2.5,-0.4 -2,0.1 -3.4,1.3 -3.3,3.6 0.1,2.1 1.5,3.4 3.4,3.3 0.6,0 1,-0.1 1.2,-0.2 l -0.1,-2.2 -1.6,0.1 -0.1,-1.9 3.9,-0.2 z" />
          </g>
          <g
             id="g804">
            <path
               id="path806"
               class="s47"
               d="m 84.1,147.3 0.7,4 3.9,-0.7 -0.7,-4 2.3,-0.4 1.9,10.4 -2.4,0.4 -0.7,-4.4 -3.9,0.7 0.8,4.4 -2.4,0.4 -1.8,-10.4 z" />
          </g>
          <g
             id="g808">
            <path
               id="path810"
               class="s47"
               d="m 97.5,152.5 c 0.7,0.1 1.8,0.1 2.7,-0.2 1.1,-0.4 1.5,-1 1.2,-1.6 -0.2,-0.7 -0.8,-0.9 -2.1,-0.9 -1.9,0 -3.3,-0.5 -3.8,-1.9 -0.6,-1.7 0.4,-3.5 2.7,-4.4 1.2,-0.3 2.1,-0.4 2.7,-0.3 l 0.2,1.9 c -0.5,0 -1.3,0 -2.3,0.3 -0.9,0.3 -1.3,1 -1.1,1.5 0.2,0.6 0.9,0.7 2.4,0.7 1.9,0.1 3.1,0.7 3.6,2.1 0.6,1.7 -0.2,3.5 -3,4.5 -1.1,0.4 -2.3,0.5 -3,0.4 z" />
          </g>
          <g
             id="g812">
            <path
               id="path814"
               class="s47"
               d="m 113.8,148.1 c -0.3,0.3 -1.1,1 -2.3,1.5 -3.2,1.6 -5.9,0.4 -7.2,-2.3 -1.6,-3.2 -0.2,-6.2 2.7,-7.6 1.1,-0.5 2.1,-0.7 2.6,-0.7 l 0.4,2 c -0.6,0 -1.3,0.1 -2,0.5 -1.7,0.8 -2.6,2.5 -1.5,4.6 0.9,1.9 2.6,2.5 4.5,1.6 0.7,-0.3 1.3,-0.8 1.6,-1.2 z" />
          </g>
          <g
             id="g816">
            <path
               id="path818"
               class="s47"
               d="m 112.3,137 2.2,3.4 3.3,-2.1 -2.2,-3.4 2,-1.3 5.7,8.8 -2,1.3 -2.4,-3.7 -3.3,2.1 2.4,3.7 -2,1.3 -5.7,-8.8 z" />
          </g>
          <g
             id="g820">
            <path
               id="path822"
               fill-rule="evenodd"
               class="s47"
               d="m 129.5,130.2 c 2.3,2.6 2.1,5.6 -0.3,7.6 -2.3,2.1 -5.3,1.5 -7.2,-0.8 -2.1,-2.4 -2.1,-5.5 0.2,-7.5 2.5,-2.1 5.4,-1.5 7.3,0.7 z m -5.6,5.1 c 1.3,1.6 3,2.1 4.2,1 1.2,-1 0.9,-2.8 -0.4,-4.4 -1.3,-1.4 -3,-2 -4.3,-0.9 -1.2,1 -0.9,2.8 0.5,4.3 z" />
          </g>
          <g
             id="g824">
            <path
               id="path826"
               fill-rule="evenodd"
               class="s47"
               d="m 137.1,121.6 c 2.6,2.3 2.8,5.2 0.8,7.6 -2,2.3 -5,2.2 -7.3,0.2 -2.4,-2.1 -2.8,-5.1 -0.8,-7.5 2.1,-2.4 5.1,-2.2 7.3,-0.3 z m -4.9,5.9 c 1.6,1.3 3.3,1.5 4.4,0.3 1,-1.2 0.5,-2.9 -1.1,-4.2 -1.4,-1.3 -3.2,-1.6 -4.3,-0.4 -1.1,1.2 -0.5,2.9 1,4.3 z" />
          </g>
          <g
             id="g828">
            <path
               id="path830"
               class="s47"
               d="m 133.8,117.3 1.3,-2 7.1,4.8 2.3,-3.5 1.7,1.1 -3.7,5.5 z" />
          </g>
          <g
             id="g832">
            <path
               id="path834"
               class="s47"
               d="m 39.3,17.7 q -0.9,-0.1 -1.3,-0.2 -1.1,-0.1 -2.7,0.1 -1.4,0.1 -2.4,0.7 -0.6,0.4 -0.8,1 -0.2,0.5 0,1 0.2,0.2 0.6,0.5 c 0.5,-0.3 0.8,-0.5 1.3,-0.8 0.2,0.4 0.3,0.5 0.4,0.8 -0.4,0.3 -0.7,0.5 -1.1,0.7 1.3,2.2 1.9,3.2 3.2,5.4 -0.5,0.3 -0.8,0.4 -1.3,0.8 -1.3,-2.2 -2,-3.2 -3.3,-5.3 -0.6,0.3 -0.8,0.5 -1.4,0.9 C 30.3,23 30.2,22.8 30,22.5 30.5,22.1 30.8,22 31.4,21.6 q -0.5,-0.3 -0.7,-0.6 -0.5,-0.8 0,-1.8 0.5,-1 1.8,-1.8 c 1.3,-0.7 2.8,-1.1 4.4,-1.1 0.8,0 2.2,0.1 4.2,0.5 -0.7,0.3 -1.1,0.5 -1.8,0.9 z" />
          </g>
          <g
             id="g836">
            <path
               id="path838"
               class="s47"
               d="m 40.7,17.6 c 1.1,2.2 1.6,3.3 2.7,5.6 -0.6,0.2 -0.8,0.4 -1.4,0.6 -0.3,-0.6 -0.4,-0.9 -0.8,-1.6 q -0.4,0.6 -1.2,1.1 -1.1,0.5 -2.1,0.5 -1.1,-0.1 -1.6,-0.9 -0.4,-0.7 0,-1.6 0.4,-0.9 1.5,-1.5 0.7,-0.4 1.4,-0.6 c 0.4,0.4 0.6,0.6 1,1 q -1.4,0.1 -1.9,0.4 -0.5,0.2 -0.7,0.7 -0.1,0.5 0.1,0.9 0.2,0.4 0.7,0.5 0.5,0 1,-0.3 0.4,-0.1 0.8,-0.6 0.5,-0.5 0.5,-0.7 c -0.6,-1.1 -0.9,-1.7 -1.4,-2.8 -2.2,1 -3.3,1.6 -5.4,2.9 -0.1,-0.3 -0.2,-0.5 -0.4,-0.8 3.1,-1.9 4.7,-2.7 8,-4.2 0.2,0.3 0.3,0.5 0.4,0.8 -0.5,0.2 -0.7,0.4 -1.2,0.6 z" />
          </g>
          <g
             id="g840">
            <path
               id="path842"
               fill-rule="evenodd"
               class="s47"
               d="m 50.9,13.5 c 0.8,2.4 1.2,3.6 1.9,6 -0.5,0.1 -0.8,0.2 -1.3,0.4 -0.2,-0.6 -0.3,-0.9 -0.6,-1.6 q -1.4,1.6 -3,2.3 -1,0.4 -1.9,0.3 -0.9,-0.1 -1.2,-0.8 c -0.2,-0.3 -0.1,-0.9 -0.1,-1 -0.1,-0.1 -1.3,-0.2 -1.5,-0.7 q -0.5,-1.1 1.3,-1.9 c 0.7,-0.3 1.1,-0.4 1.9,-0.7 -0.1,-0.3 -0.1,-0.4 -0.2,-0.6 -1.9,0.8 -2.9,1.2 -4.8,2.1 -0.2,-0.4 -0.3,-0.5 -0.4,-0.9 4.3,-2 6.5,-2.8 11,-4.1 0.1,0.3 0.1,0.5 0.2,0.8 -0.5,0.2 -0.8,0.3 -1.3,0.4 z M 49.5,14 c -0.8,0.3 -1.2,0.4 -1.9,0.7 0.2,0.6 0.3,0.9 0.5,1.4 -1.2,0.5 -1.8,0.7 -3,1.2 q -0.5,0.2 -0.6,0.3 0,0 0,0.2 c 0.1,0.3 0.6,0.5 1,0.4 0.2,-0.1 0.6,-0.5 0.8,-0.6 0.3,-0.1 0.5,-0.2 0.8,-0.3 q 0.2,0 0.6,-0.1 c 0.3,0.3 0.5,0.4 0.9,0.7 q -0.8,0.1 -1.7,0.5 -0.4,0.2 -0.7,0.5 -0.2,0.3 -0.1,0.6 0.3,0.7 1.5,0.2 0.5,-0.2 1.7,-1.1 1.2,-1 1.3,-1.4 C 50.1,16 49.9,15.3 49.5,14 Z" />
          </g>
          <g
             id="g844">
            <path
               id="path846"
               fill-rule="evenodd"
               class="s47"
               d="m 60,11.2 c 0.4,2.4 0.7,3.6 1.2,6.1 -0.6,0.1 -0.9,0.2 -1.4,0.3 -0.2,-0.7 -0.2,-1.1 -0.4,-1.8 q -0.7,0.6 -1.8,0.9 -1.7,0.4 -2.8,-0.2 c -0.7,-0.3 -1.5,-1.7 -1.4,-1.8 0.1,-0.1 0.8,0 0.9,0 q 1.3,-0.4 1,-1.3 -0.1,-0.4 -1,-0.9 c -1.1,0.3 -1.6,0.5 -2.6,0.8 -0.1,-0.3 -0.2,-0.5 -0.3,-0.9 3.8,-1.2 5.8,-1.6 9.7,-2.4 0.1,0.4 0.1,0.6 0.2,0.9 -0.5,0.1 -0.8,0.2 -1.3,0.3 z m -1.5,0.3 c -1,0.2 -1.5,0.3 -2.4,0.6 q 0.6,0.5 0.8,1 c 0.2,0.8 -1.5,2.1 -1.6,2.2 0,0.1 1.3,0.6 2.1,0.5 q 1.1,-0.3 1.7,-1.4 c -0.3,-1.1 -0.4,-1.7 -0.6,-2.9 z" />
          </g>
          <g
             id="g848">
            <path
               id="path850"
               class="s47"
               d="m 63.8,10.5 c 0.4,2.5 0.6,3.7 1,6.1 -0.6,0.1 -0.9,0.2 -1.5,0.3 -0.4,-2.5 -0.6,-3.7 -1,-6.1 -0.8,0.1 -1.2,0.2 -2,0.3 0,-0.3 -0.1,-0.5 -0.1,-0.9 1.9,-0.4 2.9,-0.5 4.8,-0.8 0,0.4 0.1,0.6 0.1,0.9 -0.5,0.1 -0.8,0.1 -1.3,0.2 z" />
          </g>
          <g
             id="g852">
            <path
               id="path854"
               class="s47"
               d="m 69.5,16.1 q -0.7,0.1 -2,-0.2 -1.4,-0.3 -1.9,-0.9 c 0.4,-0.4 0.6,-0.6 1,-0.9 q 0.2,0.5 1.3,0.9 0.9,0.3 1.5,0.3 1.6,-0.1 1.5,-1 0,-0.5 -1.5,-1.3 C 68.5,12.6 68.1,12.4 67.2,11.9 Q 65.8,11.3 65.7,10.6 65.5,9.3 67.6,9.1 c 1.6,-0.2 2.3,-0.2 3.9,-0.3 0.1,0.3 0.1,0.5 0.1,0.9 -1.6,0.1 -2.4,0.2 -4,0.3 q -0.5,0.1 -0.5,0.4 c 0,0.1 1.5,0.8 4.3,2.4 q 1,0.5 1,1.3 0,0.9 -0.9,1.4 -0.8,0.5 -2,0.6 z" />
          </g>
          <g
             id="g856">
            <path
               id="path858"
               fill-rule="evenodd"
               class="s47"
               d="m 80.3,9.6 c -0.1,2.5 -0.2,3.8 -0.3,6.2 -0.5,0 -0.8,0 -1.3,0 0,-1.3 0,-2 0,-3.3 -1,0 -1.6,0 -2.7,0 0,0.2 0,0.4 0,0.7 q 0,0 0,0.1 0,0.4 -0.6,0.4 -0.5,0 -1.3,-0.6 -0.8,-0.6 -0.8,-1 -0.1,-0.4 0.7,-0.6 c 0.2,0 0.3,0 0.5,0 0,-0.8 0,-1.2 0,-1.9 -1,0 -1.4,0 -2.3,0.1 0,-0.4 0,-0.6 -0.1,-1 3.9,-0.2 5.8,-0.1 9.7,0.1 -0.1,0.4 -0.1,0.5 -0.1,0.9 -0.6,0 -0.8,0 -1.4,-0.1 z m -1.5,0 c -1.1,0 -1.7,-0.1 -2.8,0 0,0.7 0,1.1 0,1.9 1.1,0 1.7,0 2.8,0 0,-0.8 0,-1.2 0,-1.9 z" />
          </g>
          <g
             id="g860">
            <path
               id="path862"
               class="s47"
               d="m 79,18.7 q -1,0 -1.7,-0.4 -0.8,-0.5 -0.8,-1.3 0,-0.7 0.5,-1.1 0.6,-0.4 1.5,-0.4 c 0.7,0 1,0 1.7,0.1 0,0.3 -0.1,0.5 -0.1,0.8 -0.5,0 -0.8,0 -1.4,0 q -0.8,0 -0.8,0.6 0,0.4 0.4,0.6 0.3,0.2 0.8,0.2 0.8,0 1.4,-0.5 c 0.3,0.4 0.4,0.6 0.7,1 Q 80,18.8 79,18.7 Z" />
          </g>
          <g
             id="g864">
            <path
               id="path866"
               class="s47"
               d="m 89.4,10.5 c -0.4,2.5 -0.6,3.7 -1,6.2 -0.5,-0.1 -0.8,-0.1 -1.4,-0.2 0.3,-1.7 0.4,-2.6 0.6,-4.3 -1.2,-0.2 -1.8,-0.3 -3,-0.4 q -1,-0.1 -1,0.6 -0.1,0.9 0.4,1.6 0.5,0.6 1.8,1.6 c -0.5,0.3 -0.7,0.4 -1.1,0.7 q -1.3,-1.1 -1.9,-1.9 -0.8,-1 -0.7,-2.1 0,-0.7 0.5,-1.1 0.6,-0.5 1.5,-0.4 c 1.5,0.1 2.2,0.2 3.7,0.4 0,-0.3 0,-0.5 0.1,-0.9 -2.7,-0.3 -4,-0.5 -6.7,-0.6 0,-0.4 0,-0.6 0.1,-0.9 3.8,0.2 5.8,0.4 9.6,1.1 -0.1,0.3 -0.1,0.5 -0.2,0.9 -0.5,-0.1 -0.8,-0.2 -1.3,-0.3 z" />
          </g>
          <g
             id="g868">
            <path
               id="path870"
               fill-rule="evenodd"
               class="s47"
               d="m 98.1,12.4 c -0.6,2.4 -0.9,3.6 -1.6,6 -0.5,-0.2 -0.8,-0.2 -1.3,-0.4 0.3,-1.2 0.5,-1.9 0.8,-3.2 -1.1,-0.2 -1.6,-0.3 -2.7,-0.6 0,0.3 -0.1,0.4 -0.1,0.7 q 0,0.1 0,0.1 -0.1,0.5 -0.8,0.3 -0.5,-0.1 -1.1,-0.9 -0.7,-0.7 -0.6,-1.1 0.1,-0.4 0.9,-0.4 c 0.1,0 0.2,0 0.4,0.1 0.2,-0.8 0.3,-1.2 0.4,-1.9 -0.9,-0.2 -1.4,-0.3 -2.3,-0.4 0.1,-0.4 0.1,-0.6 0.2,-0.9 3.8,0.6 5.7,1 9.4,2.1 -0.1,0.3 -0.1,0.5 -0.2,0.9 -0.6,-0.2 -0.8,-0.3 -1.4,-0.4 z M 96.7,12 c -1.1,-0.3 -1.7,-0.4 -2.8,-0.6 -0.1,0.7 -0.2,1.1 -0.4,1.9 1.1,0.2 1.6,0.3 2.7,0.6 0.2,-0.8 0.3,-1.1 0.5,-1.9 z" />
          </g>
          <g
             id="g872">
            <path
               id="path874"
               fill-rule="evenodd"
               class="s47"
               d="m 105.1,14.6 q 0.3,0.7 0.1,1.4 -0.4,0.9 -1.4,1.3 -1,0.5 -2.2,0.2 c 0.7,1 1.1,1.5 1.9,2.5 -0.5,0.1 -0.7,0.1 -1.2,0.2 -1.3,-1.6 -2,-2.5 -3.5,-4.1 0.5,-0.2 0.7,-0.3 1.2,-0.4 0.2,0.2 0.3,0.3 0.5,0.6 1.4,0.4 2.9,-0.3 2.9,-0.3 0,0 -0.9,0 -1.3,-0.1 q -1,-0.3 -1.5,-0.9 -0.5,-0.6 -0.3,-1.3 0.1,-0.3 0.4,-0.6 c -0.7,-0.2 -1.1,-0.3 -1.8,-0.5 0.1,-0.3 0.2,-0.5 0.3,-0.9 2.8,0.8 4.3,1.3 7.1,2.3 -0.2,0.4 -0.2,0.6 -0.4,0.9 -0.3,-0.1 -0.5,-0.2 -0.8,-0.3 z m -1.6,-0.4 q -0.1,-0.3 -0.7,-0.4 -0.8,-0.3 -1,0.3 -0.1,0.3 0.1,0.5 0.2,0.3 0.6,0.4 c 0.4,0.2 1.2,0.1 1.3,-0.1 0,-0.1 -0.2,-0.5 -0.3,-0.7 z" />
          </g>
          <g
             id="g876">
            <path
               id="path878"
               class="s47"
               d="m 113.2,18 c -1.1,2.3 -1.6,3.4 -2.7,5.6 -0.5,-0.2 -0.8,-0.4 -1.3,-0.6 0.6,-1.4 0.9,-2.1 1.6,-3.5 -1,-0.5 -1.6,-0.7 -2.6,-1.2 -0.1,0.3 -0.2,0.5 -0.3,0.8 q -0.2,0.6 -0.9,0.3 -0.4,-0.2 -1,-1.1 -0.5,-1 -0.3,-1.3 0.1,-0.5 1.1,-0.3 c 1.8,0.7 2.7,1.1 4.4,1.9 0.2,-0.5 0.3,-0.8 0.6,-1.3 -2.5,-1.1 -3.8,-1.7 -6.4,-2.6 0.1,-0.4 0.2,-0.5 0.3,-0.9 3.7,1.4 5.6,2.2 9.1,4 -0.1,0.3 -0.2,0.5 -0.4,0.8 -0.5,-0.2 -0.7,-0.3 -1.2,-0.6 z" />
          </g>
          <g
             id="g880">
            <path
               id="path882"
               class="s47"
               d="m 106.9,25.3 c -0.9,-0.4 -1.9,-1.4 -3.3,-2.9 0.5,-0.1 0.7,-0.2 1.2,-0.4 1,1.3 1.8,2.1 2.5,2.4 q 0.5,0.3 1.1,0.3 0.6,0 0.8,-0.3 0.2,-0.6 -0.5,-0.9 -0.4,-0.3 -1.4,0 c -0.2,-0.4 -0.4,-0.6 -0.7,-1.1 q 0.5,-0.2 1.4,-0.1 0.7,0.2 1.2,0.4 0.8,0.4 1.2,1 0.3,0.6 0,1.2 -0.4,0.9 -1.5,0.9 -0.9,0 -2,-0.5 z" />
          </g>
          <g
             id="g884">
            <path
               id="path886"
               class="s47"
               d="m 121.3,22.5 c -1.4,2.1 -2,3.2 -3.4,5.3 -0.5,-0.3 -0.7,-0.5 -1.2,-0.8 0.9,-1.5 1.4,-2.2 2.3,-3.7 -1.1,-0.7 -1.7,-1 -2.8,-1.6 q -0.8,-0.5 -1.2,0.1 -0.4,0.8 -0.2,1.7 0.2,0.7 1.1,2.2 c -0.6,0.1 -0.8,0.1 -1.3,0.1 q -0.8,-1.4 -1.1,-2.4 -0.3,-1.3 0.2,-2.3 0.3,-0.6 0.9,-0.8 0.8,-0.1 1.6,0.3 c 1.3,0.7 2,1.1 3.3,1.9 0.2,-0.3 0.2,-0.5 0.4,-0.8 -2.3,-1.4 -3.5,-2.1 -6,-3.3 0.2,-0.4 0.2,-0.5 0.4,-0.9 3.6,1.8 5.3,2.8 8.7,5 -0.2,0.3 -0.3,0.5 -0.5,0.8 -0.5,-0.3 -0.8,-0.5 -1.2,-0.8 z" />
          </g>
          <g
             id="g888">
            <path
               id="path890"
               class="s47"
               d="m 120.2,21.1 c -0.8,-1.9 -1.3,-2.8 -2.3,-4.7 0.6,0 0.9,-0.1 1.5,-0.1 0.9,2.2 1.3,3.3 2,5.6 -0.4,-0.3 -0.7,-0.5 -1.2,-0.8 z" />
          </g>
        </g>
      </g>
    </g>
  </g>
</svg>
